<?xml version="1.0" standalone="no"?>
<!DOCTYPE svg PUBLIC "-//W3C//DTD SVG 1.1//EN" "http://www.w3.org/Graphics/SVG/1.1/DTD/svg11.dtd" >
<svg xmlns="http://www.w3.org/2000/svg" xmlns:xlink="http://www.w3.org/1999/xlink" version="1.1">
<metadata>
Created by FontForge 20170924 at Sat Sep 19 06:23:16 2020
 By www-data
Copyright \(c\)2020 Git Aset - Unlimited Download Graphic Assets Premium. All Rights Reserved.
</metadata>
<defs>
<font id="Hanya" horiz-adv-x="582" >
  <font-face 
    font-family="Hanya Teman"
    font-weight="400"
    font-stretch="normal"
    units-per-em="1000"
    panose-1="0 0 0 0 0 0 0 0 0 0"
    ascent="750"
    descent="-250"
    x-height="162"
    cap-height="498"
    bbox="-98.5 -260 844.063 749.039"
    underline-thickness="50"
    underline-position="-125"
    stemh="35"
    stemv="37"
    unicode-range="U+000A-2212"
  />
<missing-glyph horiz-adv-x="250" 
 />
    <glyph glyph-name=".notdef" horiz-adv-x="250" 
 />
    <glyph glyph-name="uni0000" horiz-adv-x="0" 
 />
    <glyph glyph-name="uni0000" horiz-adv-x="0" 
 />
    <glyph glyph-name="uni000D" unicode="&#xd;" horiz-adv-x="250" 
 />
    <glyph glyph-name="space" unicode=" " horiz-adv-x="260" 
 />
    <glyph glyph-name="A" unicode="A" horiz-adv-x="495" 
d="M10 -197c-8 6 -11 17 -5 26c29 45 71 124 115 212c-17 -10 -33 -19 -46 -27c-3 -2 -6 -3 -10 -3c-6 0 -12 3 -15 9c-6 9 -3 20 6 26c22 13 55 32 94 52c92 186 184 387 186 391c0 1 1 2 1 3l1 1c0 1 4 4 5 4c3 2 6 3 10 3h4c2 -1 3 -1 3 -2c1 0 2 -1 3 -2c1 0 1 0 3 -2
l1 -1c1 -1 1 -1 1 -2c1 -2 2 -2 2 -3v-2l1 -1v-8c-1 -4 -32 -144 -29 -284c80 36 154 66 192 71c10 1 19 -6 20 -16c2 -11 -5 -20 -16 -21c-34 -5 -111 -36 -194 -75c8 -112 0 -297 94 -320c10 -3 16 -13 13 -23c-2 -8 -9 -14 -18 -14c-1 0 -3 0 -4 1
c-109 27 -110 220 -121 340c-45 -22 -90 -44 -130 -65c-53 -107 -106 -208 -141 -263c-3 -5 -9 -8 -15 -8c-4 0 -7 1 -11 3zM311 351c-29 -63 -67 -143 -106 -224c32 16 65 33 99 49c-3 61 2 123 7 175z" />
    <glyph glyph-name="B" unicode="B" horiz-adv-x="593" 
d="M24 8c-5 8 -3 19 5 25c8 5 19 3 25 -5c11 -16 29 -31 53 -45c62 126 125 286 167 398c-53 -19 -106 -49 -133 -65c-8 -6 -19 -3 -24 5c-6 9 -3 20 5 25c13 8 91 56 168 78c20 56 33 93 33 94c4 9 14 14 23 11c10 -3 14 -13 11 -23c-1 -4 -11 -31 -25 -72c29 5 56 4 78 -7
c18 -9 41 -28 46 -71c8 -68 -33 -123 -84 -163c33 6 67 11 97 11c40 0 74 -8 94 -29c25 -26 25 -64 3 -116c-48 -110 -153 -161 -269 -161c-61 0 -123 14 -174 36c-19 -36 -37 -69 -55 -96c-3 -5 -9 -8 -15 -8c-3 0 -6 1 -9 3c-9 5 -11 16 -6 25c17 26 35 57 53 92
c-29 17 -52 36 -67 58zM203 107c-20 -48 -42 -96 -64 -140c54 -24 123 -38 191 -32c68 7 158 36 203 139c16 37 18 62 4 76c-12 13 -37 18 -68 18c-63 0 -154 -22 -227 -47c-18 -7 -32 -12 -39 -14zM317 395c-24 -66 -57 -153 -95 -242c1 0 2 0 3 1c68 26 207 94 195 198
c-3 36 -24 49 -57 49c-14 0 -30 -2 -46 -6z" />
    <glyph glyph-name="C" unicode="C" horiz-adv-x="541" 
d="M20 45c-5 80 18 168 67 248c70 115 184 195 290 205c71 6 142 -34 171 -101c14 -32 14 -59 -1 -79s-43 -30 -86 -30c-16 0 -33 1 -52 4c-10 1 -18 10 -16 21c1 10 10 18 21 16c77 -9 97 5 102 12c8 10 2 27 -4 41c-22 51 -76 83 -133 78c-92 -9 -195 -82 -260 -187
c-45 -73 -66 -152 -61 -226c7 -98 60 -177 163 -177c106 0 243 80 314 194c4 6 10 9 17 9c3 0 7 -1 10 -3c9 -5 12 -17 6 -26c-75 -121 -237 -214 -343 -214c-124 0 -197 96 -205 215z" />
    <glyph glyph-name="D" unicode="D" horiz-adv-x="539" 
d="M-66 200c-9 6 -14 17 -10 27c2 2 77 151 217 196c7 55 12 91 12 92c1 11 12 17 23 14c10 -3 19 -14 17 -24c-1 -5 -3 -32 -9 -73c50 7 107 0 171 -30c115 -54 175 -169 151 -289c-23 -121 -133 -229 -325 -229c-29 0 -61 2 -94 8c-8 -31 -18 -60 -27 -82
c-3 -7 -8 -10 -16 -10c-3 0 -6 1 -10 3c-10 6 -15 17 -12 27c9 19 16 43 24 69c-4 1 -6 1 -9 2c-11 3 -19 14 -19 24c1 11 11 18 22 15c5 -1 10 -2 16 -3c33 131 61 314 79 439c-113 -48 -173 -169 -173 -171c-3 -6 -9 -9 -15 -9c-4 0 -9 1 -13 4zM97 -71c27 -4 53 -6 77 -6
c173 0 272 96 292 204c20 102 -27 196 -122 240c-42 20 -80 28 -115 28c-18 0 -35 -2 -51 -6c-17 -122 -46 -317 -81 -460z" />
    <glyph glyph-name="E" unicode="E" horiz-adv-x="549" 
d="M37 85c-6 9 -3 21 6 27c28 17 56 32 82 47c51 153 113 298 117 309c4 10 16 15 26 11c3 -2 7 -5 9 -8l251 29c10 1 20 -7 21 -17c1 -11 -6 -20 -17 -22l-264 -30c-25 -61 -60 -152 -93 -247c90 45 170 71 241 80c10 2 20 -6 22 -16c1 -11 -6 -21 -17 -22
c-76 -10 -163 -41 -264 -94c-36 -110 -65 -217 -65 -277c134 92 249 135 349 134c10 0 19 -9 19 -20s-9 -19 -20 -19h-5c-96 0 -213 -49 -348 -146c-4 -3 -8 -4 -12 -4c-6 0 -12 3 -15 8c-4 5 -5 11 -3 16c-11 55 15 166 51 281c-15 -9 -30 -17 -45 -26c-3 -2 -6 -3 -10 -3
c-6 0 -13 3 -16 9z" />
    <glyph glyph-name="F" unicode="F" horiz-adv-x="516" 
d="M11 81c-7 9 -5 20 3 25c47 30 91 51 135 66c15 93 28 178 34 222c-32 -14 -60 -28 -85 -44c-3 -2 -7 -3 -10 -3c-6 0 -12 3 -17 9c-5 8 -3 20 4 25c112 71 287 116 370 127c10 1 21 -6 23 -16c1 -10 -5 -19 -15 -21c-56 -7 -146 -29 -230 -61c-4 -28 -16 -119 -35 -225
c43 12 127 42 163 56c10 1 20 -6 22 -16c3 -10 -3 -19 -14 -21c-41 -14 -129 -45 -178 -61c-21 -117 -49 -244 -80 -325c-3 -6 -10 -10 -17 -10c-2 0 -5 1 -8 2c-9 4 -14 15 -10 24c28 72 54 186 74 295c-33 -14 -68 -31 -104 -54c-3 -2 -6 -3 -10 -3c-6 0 -12 3 -15 9z" />
    <glyph glyph-name="G" unicode="G" horiz-adv-x="488" 
d="M108 -158c-78 51 -71 240 -30 364c47 142 154 305 302 296c46 -3 77 -20 95 -51c41 -73 -18 -193 -21 -198c-4 -8 -14 -12 -22 -8c-9 5 -12 15 -8 23c15 31 49 120 22 167c-11 20 -34 31 -68 33c-120 8 -222 -131 -268 -272c-43 -131 -36 -291 17 -325c7 -4 15 -6 24 -6
c63 0 182 99 254 244c-48 -11 -99 -21 -145 -30c-3 -1 -6 -2 -9 -2c-6 0 -11 3 -15 8c-4 8 -2 18 6 23c80 18 141 34 213 49l11 2c9 1 17 -5 19 -14c1 -10 -6 -18 -15 -19c-8 -3 -16 -5 -25 -7l-23 -280c0 -10 -8 -17 -17 -17c-10 0 -17 8 -17 17l21 213
c-70 -149 -189 -226 -241 -226c-25 0 -45 7 -60 16z" />
    <glyph glyph-name="H" unicode="H" horiz-adv-x="515" 
d="M7 74c-1 10 6 19 17 21l122 13c51 161 116 329 128 360c4 9 15 14 24 10c10 -3 14 -14 11 -23c-30 -75 -81 -213 -123 -343l192 20h3c50 157 112 316 123 346c4 10 15 14 24 11c10 -4 14 -15 11 -24c-59 -150 -207 -557 -189 -642c2 -10 -4 -20 -14 -22
c-2 -1 -3 -1 -4 -1c-9 0 -16 6 -18 15c-10 46 18 159 55 279l-195 -20c-36 -118 -63 -223 -54 -262c2 -10 -5 -20 -15 -22h-3c-9 0 -17 6 -18 15c-10 44 15 150 50 264l-107 -11h-2c-9 0 -17 7 -18 16z" />
    <glyph glyph-name="I" unicode="I" horiz-adv-x="197" 
d="M36 -185c-16 111 91 449 141 599l31 80c6 6 16 8 23 4c7 -5 10 -14 7 -22c-2 -5 -184 -520 -165 -653c1 -10 -5 -20 -15 -23h-4c-9 0 -17 6 -18 15z" />
    <glyph glyph-name="J" unicode="J" horiz-adv-x="470" 
d="M49 -170c-27 18 -38 46 -35 79c10 90 133 215 299 309c14 79 29 142 42 189c-44 -47 -106 -97 -166 -97c-7 0 -15 0 -22 2c-10 2 -16 12 -14 21c3 10 12 16 22 14c75 -17 178 106 211 155l1 1c0 1 1 1 1 2c2 1 2 2 3 2c2 1 3 1 3 2h1c1 0 2 1 2 1h7c1 0 2 -1 3 -1h1
c0 -1 1 -1 2 -1l2 -2c1 0 1 -1 2 -1c0 -1 1 -1 1 -2l1 -1c0 -1 1 -1 2 -3v-2l1 -1v-7c0 -1 -1 -2 -1 -3v-1c-1 -1 -77 -313 -78 -326c-26 -164 -103 -303 -188 -340c-14 -6 -29 -9 -43 -9c-21 0 -42 7 -60 20zM49 -95c-2 -20 5 -35 20 -46c13 -9 25 -13 39 -13
c9 0 19 2 30 7c73 31 143 162 166 312l1 6c-150 -90 -249 -200 -256 -266z" />
    <glyph glyph-name="K" unicode="K" horiz-adv-x="455" 
d="M-10 -201c-3 40 112 407 169 587l-49 -51c-3 -4 -9 -6 -14 -6s-9 2 -13 5c-8 8 -8 20 -1 28l107 113c2 2 4 4 6 5h1c2 1 4 1 7 1h6c7 -4 9 -6 12 -11c1 -3 2 -5 2 -7v-1c0 -2 0 -4 -1 -6c-32 -99 -71 -225 -106 -340c72 48 241 204 389 356c4 4 9 6 14 6s10 -2 14 -6
c8 -8 8 -20 0 -28c-67 -68 -188 -189 -290 -276c4 -4 6 -9 6 -15c0 -2 12 -265 142 -341c28 -16 49 -24 72 -24c28 0 60 12 112 30c10 4 22 -2 25 -12c4 -10 -2 -21 -12 -25c-40 -13 -79 -27 -122 -27c-30 0 -62 7 -98 27c-129 72 -156 310 -158 359
c-45 -37 -84 -65 -109 -74c-41 -135 -72 -246 -72 -264c0 -11 -8 -20 -18 -21h-1c-11 0 -19 8 -20 18z" />
    <glyph glyph-name="L" unicode="L" horiz-adv-x="441" 
d="M22 -172v1c0 2 0 4 1 7c1 1 1 1 1 2c89 172 197 652 198 657c2 10 12 17 23 15c10 -3 16 -13 14 -23c-4 -18 -90 -402 -174 -607c23 10 52 18 87 18c14 0 29 -1 44 -4c33 -6 59 -8 78 -8c41 0 53 9 54 9c10 2 20 -5 22 -15c2 -11 -5 -21 -15 -22c-3 -1 -18 -11 -62 -11
c-21 0 -48 3 -84 9c-13 2 -25 3 -36 3c-74 0 -116 -41 -118 -43c-1 -1 -6 -5 -8 -5h-2c-1 -1 -2 -1 -3 -1h-1c-2 0 -4 1 -7 2h-2c-1 1 -3 2 -4 3v1c-2 1 -3 3 -4 5l-1 1c0 2 -1 4 -1 6z" />
    <glyph glyph-name="M" unicode="M" horiz-adv-x="726" 
d="M28 -164c-23 110 59 442 99 593l-69 -72c-4 -4 -9 -7 -15 -7c-4 0 -9 2 -13 6c-8 7 -8 20 -1 28l123 130c7 6 17 8 25 3c8 -4 11 -13 9 -22c-1 -3 -34 -121 -66 -258c67 102 174 243 249 243c15 0 29 -7 38 -19c38 -49 19 -206 -6 -336c66 128 163 282 243 282
c17 0 32 -7 44 -22c70 -91 -35 -503 -48 -550c-2 -9 -10 -15 -19 -15c-1 0 -3 0 -5 1c-10 2 -17 13 -14 24c44 169 98 459 54 516c-4 6 -8 7 -12 7c-78 0 -216 -259 -284 -422c-4 -10 -15 -15 -25 -11c-10 3 -15 13 -13 23c41 159 92 429 54 479c-3 3 -5 4 -7 4
c-66 0 -203 -195 -274 -320c-23 -115 -39 -225 -28 -277c2 -11 -5 -21 -15 -24h-4c-10 0 -18 6 -20 16z" />
    <glyph glyph-name="O" unicode="O" horiz-adv-x="653" 
d="M76 -24c-23 81 -16 174 17 263c46 124 159 259 303 259c23 0 46 -4 68 -12c10 -4 15 -15 12 -26c-4 -10 -16 -15 -26 -11c-18 6 -37 10 -56 10c-126 0 -225 -126 -264 -234c-30 -81 -36 -166 -16 -238c23 -83 81 -150 171 -150c127 0 223 127 264 234
c25 70 34 145 22 211c-10 54 -51 99 -107 99c-60 0 -129 -52 -201 -153c-4 -5 -9 -8 -15 -8c-4 0 -8 1 -12 4c-9 6 -11 18 -5 27c94 131 173 169 233 169c75 0 133 -59 146 -131c13 -73 4 -155 -24 -232c-46 -123 -159 -259 -302 -259c-107 0 -181 78 -208 178z" />
    <glyph glyph-name="P" unicode="P" horiz-adv-x="512" 
d="M16 218c-10 5 -13 18 -7 26c1 3 76 120 185 181c11 37 20 61 24 72c3 10 14 15 25 12c10 -3 16 -14 11 -25c-3 -11 -7 -22 -11 -34c26 9 53 14 81 14c35 0 72 -8 109 -29c106 -60 100 -185 45 -284c-55 -98 -158 -175 -270 -175c-32 0 -66 7 -100 22
c-20 -90 -38 -146 -42 -194c3 -10 -3 -21 -14 -23c-2 -1 -4 -1 -4 -1c-9 0 -17 6 -19 15c7 122 86 392 145 572c-78 -58 -131 -142 -132 -143c-6 -9 -18 -12 -26 -6zM227 400c-35 -103 -78 -243 -109 -364c30 -14 61 -21 91 -21c97 0 186 69 234 156c41 74 60 179 -29 230
c-30 17 -61 24 -90 24c-34 0 -67 -9 -97 -25z" />
    <glyph glyph-name="Q" unicode="Q" horiz-adv-x="616" 
d="M64 6c-22 79 -17 171 16 259c45 121 157 255 298 255c23 0 46 -4 68 -12c10 -4 16 -15 12 -26c-4 -10 -15 -15 -26 -12c-17 7 -36 10 -54 10c-123 0 -222 -124 -260 -229c-30 -80 -35 -163 -16 -234c22 -81 80 -147 168 -147c53 0 105 26 145 61c-41 54 -80 115 -79 151
c0 11 9 20 20 20h1c11 -1 19 -10 19 -21c-1 -22 30 -71 68 -122c36 38 65 86 85 140c26 70 34 143 22 208c-10 52 -51 97 -105 97c-59 0 -126 -51 -197 -150c-4 -6 -10 -8 -16 -8c-4 0 -9 1 -12 3c-9 7 -11 19 -4 28c92 129 169 166 228 166c74 0 132 -58 145 -129
c13 -72 5 -153 -23 -228c-23 -62 -57 -116 -98 -159c21 -27 42 -52 62 -74c7 -8 6 -20 -2 -28c-4 -3 -8 -5 -13 -5c-6 0 -11 2 -15 7c-10 11 -35 38 -62 72l-27 -21c-47 -32 -96 -48 -143 -48c-105 0 -178 78 -205 176z" />
    <glyph glyph-name="R" unicode="R" horiz-adv-x="597" 
d="M-31 -197c-8 6 -11 17 -5 26c77 118 186 406 242 559c-27 -12 -50 -24 -66 -33c-9 -5 -20 -2 -25 7c-5 8 -2 20 7 25c10 5 50 28 102 50c11 31 17 50 18 51c3 9 13 14 23 11s15 -14 12 -24c-1 -2 -4 -9 -7 -19c50 19 105 34 152 34c57 0 106 -25 113 -87
c22 -166 -160 -265 -293 -315c4 -94 36 -238 154 -238c54 0 121 29 200 87c8 6 20 4 26 -5c6 -8 4 -19 -4 -25c-86 -62 -161 -94 -223 -94c-135 0 -182 149 -190 262c-42 -14 -75 -22 -91 -26c-41 -96 -83 -185 -119 -241c-4 -5 -9 -8 -16 -8c-3 0 -6 1 -10 3zM132 92
c21 6 50 14 83 26c1 0 1 1 2 1c125 45 299 134 281 279c-6 43 -35 55 -74 55c-49 0 -114 -21 -171 -44c-26 -74 -72 -197 -121 -317z" />
    <glyph glyph-name="S" unicode="S" horiz-adv-x="553" 
d="M-3 -173c-38 30 -41 60 -36 80c19 83 221 160 394 210c-127 74 -211 138 -215 206c-2 41 24 79 78 118c38 28 75 42 110 42c12 0 24 -1 36 -5c74 -22 107 -106 108 -110c4 -9 -1 -20 -11 -24c-9 -3 -20 1 -24 11c0 1 -27 70 -84 87c-8 2 -16 4 -25 4
c-27 0 -56 -12 -88 -35c-43 -31 -64 -59 -62 -86c3 -56 106 -123 206 -181c7 -4 14 -8 20 -13c95 27 174 44 195 48c10 3 20 -4 23 -14c2 -10 -5 -20 -15 -22c-52 -11 -112 -26 -173 -42c19 -26 23 -53 22 -74c-3 -76 -78 -163 -182 -211c-47 -22 -95 -33 -140 -33
c-51 0 -99 15 -137 44zM-3 -102c-1 -5 -4 -20 23 -41c36 -28 76 -37 113 -37c53 0 100 18 126 30c90 42 157 117 160 178c1 24 -7 44 -25 62c-190 -55 -382 -129 -397 -192z" />
    <glyph glyph-name="T" unicode="T" horiz-adv-x="535" 
d="M-18 365c-1 10 7 19 17 20l235 22c18 45 30 79 35 91c4 10 15 14 25 11c9 -4 14 -15 10 -25c-8 -20 -17 -45 -28 -74l243 22c10 1 19 -7 20 -17s-7 -19 -17 -20l-261 -24c-68 -186 -163 -469 -149 -538c3 -11 -4 -20 -14 -23h-4c-9 0 -16 6 -18 15c-17 82 80 369 144 543
l-218 -20h-1c-10 0 -18 7 -19 17z" />
    <glyph glyph-name="U" unicode="U" horiz-adv-x="617" 
d="M51 203c-9 6 -11 18 -4 27l199 272c6 8 17 10 25 5c9 -5 12 -15 8 -24c-63 -131 -213 -489 -155 -581c8 -12 20 -18 38 -18c153 0 323 402 375 557c3 10 14 16 24 13c10 -4 16 -14 13 -24c-1 -1 -43 -146 -72 -291c-56 -276 -15 -291 -14 -291c11 -3 16 -14 13 -24
c-2 -9 -10 -14 -18 -14c-2 0 -3 0 -5 1c-36 10 -70 58 -14 336c3 12 6 25 8 37c-77 -160 -190 -338 -310 -338c-31 0 -55 12 -70 36c-52 83 19 302 82 456l-96 -131c-4 -5 -10 -7 -16 -7c-4 0 -8 1 -11 3z" />
    <glyph glyph-name="X" unicode="X" horiz-adv-x="818" 
d="M-7 -190c-5 9 -1 21 8 26c78 42 217 161 354 286c-83 130 -151 275 -127 336c4 10 15 15 25 11s15 -15 11 -25c-15 -38 35 -161 120 -295c183 170 353 342 356 345c4 4 9 6 14 6s10 -2 13 -6c8 -7 8 -19 1 -27c-13 -12 -182 -183 -363 -351l6 -9
c83 -124 146 -184 165 -187c8 5 18 5 25 -2c7 -8 7 -20 0 -27c-5 -5 -13 -10 -23 -10c-59 0 -173 167 -202 209c-136 -125 -276 -244 -357 -288c-3 -1 -6 -2 -9 -2c-7 0 -13 4 -17 10z" />
    <glyph glyph-name="Y" unicode="Y" horiz-adv-x="469" 
d="M101 188c-71 74 -18 253 -16 261s12 13 22 11s16 -11 13 -19c-14 -47 -40 -182 10 -235c14 -15 33 -22 59 -22c132 0 190 191 202 241c2 7 3 12 4 13v2c1 2 2 2 2 3h1c0 1 1 1 1 2h1l2 2h1c1 0 1 1 2 1h1c1 1 2 1 3 1h7c1 0 1 0 1 -1h2c1 0 1 0 2 -1h1c1 -1 1 -1 3 -2
l1 -1c1 -1 1 -1 2 -3l1 -1s0 -1 1 -1v-7c0 -2 -1 -6 -3 -13c-6 -29 -21 -112 -22 -242c27 13 56 13 85 24c9 4 20 1 24 -7c4 -7 1 -16 -9 -20c-35 -14 -69 -16 -100 -32c0 -11 0 -23 1 -35c4 -155 -55 -291 -144 -333c-20 -9 -40 -14 -61 -14c-24 0 -48 6 -73 19
c-39 20 -58 51 -55 89c6 89 126 203 295 291c0 46 2 86 4 121c-37 -65 -96 -126 -183 -126c-37 0 -67 11 -88 34zM109 -134c-2 -27 11 -48 39 -62c18 -9 35 -14 53 -14c14 0 29 4 43 10c76 36 129 165 125 306v17c-159 -86 -255 -189 -260 -257z" />
    <glyph glyph-name="Z" unicode="Z" horiz-adv-x="570" 
d="M30 368c-5 10 -1 21 8 26c34 19 177 96 272 96c24 0 45 -5 60 -17c25 -20 31 -55 18 -104c-12 -43 -29 -89 -49 -138c74 40 145 70 196 77c10 1 20 -6 21 -17c2 -10 -6 -20 -16 -21c-55 -7 -141 -48 -227 -96c-60 -127 -134 -254 -176 -323l368 160c9 4 21 -1 25 -10
c4 -10 0 -21 -10 -25l-424 -184c-2 -1 -5 -2 -7 -2c-6 0 -11 2 -15 7c-5 6 -6 15 -1 22c1 3 99 156 181 321c-45 -26 -88 -52 -126 -75l-34 -21c-4 -2 -7 -3 -10 -3c-7 0 -13 3 -17 9c-5 9 -2 21 7 26l34 21c54 33 115 70 175 104c29 63 54 124 68 178c7 22 11 52 -5 64
c-8 6 -20 9 -35 9c-63 0 -177 -48 -255 -91c-9 -5 -20 -2 -26 7z" />
    <glyph glyph-name="period" unicode="." horiz-adv-x="137" 
d="M52 51c0 20 16 35 35 35c20 0 35 -15 35 -35c0 -19 -15 -35 -35 -35c-19 0 -35 16 -35 35z" />
    <glyph glyph-name="a" unicode="a" horiz-adv-x="183" 
d="M8 16c-20 19 -26 50 -16 80c21 64 75 90 105 99c10 4 22 2 30 -5c9 -7 14 -18 12 -29c-4 -51 -15 -86 -27 -110c9 3 26 21 77 71c6 5 11 8 17 8c4 0 8 -1 11 -4c9 -7 6 -20 -1 -29c-48 -59 -77 -86 -104 -88c-9 0 -18 1 -26 7c-8 -6 -15 -10 -21 -12c-6 -3 -13 -4 -19 -4
c-14 0 -27 5 -38 16zM32 83c-6 -17 -2 -31 5 -37c6 -6 12 -4 14 -3c16 5 37 37 46 108c-23 -10 -53 -30 -65 -68z" />
    <glyph glyph-name="c" unicode="c" horiz-adv-x="190" 
d="M49 10c-40 19 -58 59 -46 103c17 61 78 70 108 67c11 -1 18 -11 17 -21c-1 -11 -11 -18 -21 -17c-3 0 -54 4 -66 -39c-8 -26 2 -47 25 -58c8 -4 18 -6 29 -6c28 0 62 15 90 54c4 6 10 8 16 8c4 0 8 -1 11 -3c8 -6 10 -18 4 -27c-36 -51 -82 -71 -122 -71
c-16 0 -32 4 -45 10z" />
    <glyph glyph-name="e" unicode="e" horiz-adv-x="145" 
d="M3 31c-20 41 -4 115 16 140c11 15 23 15 30 13c11 -2 19 -10 23 -20c9 -26 -21 -67 -39 -90c0 -9 2 -17 4 -24c4 -10 9 -10 12 -10c1 0 2 0 3 -1c14 2 46 15 91 70c4 5 9 8 15 8c4 0 9 -2 12 -5c9 -7 10 -19 3 -27c-56 -70 -99 -83 -119 -85c-25 0 -40 8 -51 31z" />
    <glyph glyph-name="f" unicode="f" horiz-adv-x="128" 
d="M-91 -211c-7 8 -16 30 9 81c5 10 17 14 27 9c2 0 3 -1 4 -2c16 18 44 41 60 86c-2 2 -27 -18 -28 -15c-31 -9 -27 25 -17 30c1 0 52 30 57 32c8 26 16 51 23 74l4 12c-24 -18 -50 -35 -74 -51c-3 -2 -7 -3 -11 -3c-7 0 -13 3 -17 9c-6 9 -3 21 6 27c43 28 89 62 119 88
c15 41 25 57 40 62c7 3 16 2 23 -3c7 -6 12 -15 11 -24c0 -15 -15 -36 -39 -58c-7 -21 -15 -47 -23 -71c-4 -12 -7 -23 -11 -35c20 12 42 26 57 40c4 4 9 6 15 6c5 0 10 -2 14 -6c7 -8 7 -21 -1 -29c-30 -28 -75 -53 -104 -67c-29 -86 -70 -143 -114 -192
c-4 -4 -9 -7 -15 -7s-11 3 -15 7z" />
    <glyph glyph-name="g" unicode="g" horiz-adv-x="189" 
d="M-24 -227c-15 19 -12 50 8 90c28 57 81 123 130 179c0 3 0 7 1 11c-20 -35 -41 -50 -65 -49c-14 1 -26 9 -35 22c-18 28 -14 78 -2 110c14 35 40 64 80 64c29 0 53 -15 56 -17s5 -5 7 -8c0 -2 1 -4 1 -6v-2c0 -4 -1 -38 -4 -83c40 43 72 73 75 76c7 7 18 6 25 -1
s6 -18 -1 -25c-1 -1 -50 -47 -104 -107c-6 -57 -14 -119 -27 -162c-19 -62 -65 -101 -101 -107c-3 -1 -7 -1 -10 -1c-15 0 -27 6 -34 16zM16 -152c-17 -33 -15 -50 -12 -54c2 -2 8 -2 10 -1c21 4 58 31 73 82c9 28 15 66 20 105c-37 -44 -71 -91 -91 -132zM46 123
c-10 -27 -11 -63 -1 -78c3 -5 6 -6 7 -6c21 -1 51 60 67 120c-7 3 -16 6 -26 6c-4 0 -8 0 -12 -2c-14 -4 -26 -18 -35 -40z" />
    <glyph glyph-name="h" unicode="h" horiz-adv-x="220" 
d="M12 125c1 2 2 4 2 6c3 76 27 190 58 255c7 17 23 46 43 50h4h3c2 0 4 0 5 -1c12 -3 21 -13 23 -26c2 -11 1 -22 -1 -33c-11 -66 -51 -154 -80 -214l-18 -39c-2 -3 -2 -5 -3 -8c0 -15 0 -30 1 -45c1 -7 3 -28 10 -33c1 -1 3 -1 5 0c2 2 5 4 7 6c18 18 38 73 45 97
c2 9 10 14 18 14c9 -1 16 -7 17 -15c0 -22 1 -61 15 -79c6 -9 14 -12 24 -10c11 2 21 7 31 13c5 3 10 4 16 3c7 -3 11 -8 12 -15s-1 -13 -7 -17c-14 -9 -30 -17 -47 -20c-25 -4 -47 6 -61 28c-3 5 -5 11 -8 17c0 0 -1 1 -1 2l-4 -7c-6 -13 -14 -25 -23 -35
c-7 -7 -15 -14 -25 -17c-2 -1 -5 -1 -7 -2h-9c-26 6 -35 22 -40 45s-5 46 -4 69c0 2 -1 4 -1 6v5zM67 246c1 1 1 1 1 2c8 20 16 40 24 61c10 27 19 54 24 83h-1c0 -1 -1 -1 -1 -2c-7 -11 -12 -23 -16 -35c-12 -32 -21 -65 -29 -98c-1 -4 -1 -7 -2 -11z" />
    <glyph glyph-name="i" unicode="i" horiz-adv-x="154" 
d="M12 26c-29 43 6 129 14 145c4 11 17 16 27 11c11 -5 15 -17 11 -27c-14 -32 -30 -88 -18 -106c1 -2 4 -6 15 -6c11 5 48 17 96 76c4 5 10 7 16 7c5 0 9 -1 13 -4c9 -8 10 -21 3 -30c-53 -64 -101 -89 -130 -92c-12 0 -22 2 -31 10c-8 5 -13 10 -16 16zM69 226
c-13 0 -24 10 -24 23s11 24 24 24s23 -11 23 -24s-10 -23 -23 -23z" />
    <glyph glyph-name="k" unicode="k" horiz-adv-x="187" 
d="M24 120v2v20c1 2 1 5 2 7c4 66 38 266 91 284c2 0 4 1 5 1h8c14 -3 21 -11 24 -23c3 -9 2 -18 1 -27c-2 -15 -5 -30 -9 -45c-21 -67 -51 -133 -83 -196c-2 -4 -3 -7 -3 -11v-10c0 -13 0 -27 2 -40c1 -3 1 -3 4 -1c21 14 41 29 63 41c8 5 15 9 24 11c10 4 21 -4 24 -11
c2 -6 2 -12 -2 -18c-3 -6 -6 -11 -10 -16c-10 -15 -20 -30 -30 -44c-1 -2 -1 -3 -2 -5c1 1 2 1 3 1l17 7c9 4 19 0 23 -9s1 -19 -8 -24c-11 -5 -23 -10 -35 -12c-4 -1 -7 -1 -11 -2h-3h-2c-16 1 -27 15 -25 31c1 9 5 17 9 25c1 2 2 5 3 7c-1 0 -2 -1 -2 -1l-18 -12
c-6 -5 -14 -7 -21 -7c-16 0 -32 11 -36 29c-2 10 -2 21 -3 32v2v14zM120 386c-19 -36 -29 -75 -39 -114c1 0 2 1 2 1c4 11 8 21 12 31c10 27 19 54 25 82z" />
    <glyph glyph-name="l" unicode="l" horiz-adv-x="159" 
d="M8 111v9s0 6 1 8v4c8 80 31 215 72 277c6 8 12 15 21 19c3 2 7 2 10 3h7c13 -3 22 -12 25 -26c1 -9 1 -19 -1 -29c-10 -68 -43 -139 -71 -201c-9 -18 -18 -36 -27 -55c0 -1 -1 -2 -1 -3c-1 -15 -1 -29 0 -44c1 -9 2 -17 5 -26c2 -8 7 -11 16 -10c3 0 6 1 8 2
c36 14 76 58 99 88c6 8 18 9 25 3c9 -6 10 -17 4 -25c-36 -45 -78 -91 -135 -105h-2h-5c-2 0 -4 1 -6 1c-15 3 -27 10 -34 25c-5 9 -7 20 -9 31c-2 18 -2 36 -2 54zM67 266c-1 -6 -3 -13 -3 -18c13 32 26 65 37 99c3 13 7 25 8 39c-1 -1 -1 -1 -1 -2c-5 -9 -10 -18 -13 -28
c-12 -29 -20 -59 -28 -90z" />
    <glyph glyph-name="n" unicode="n" horiz-adv-x="205" 
d="M-21 5c-9 4 -14 14 -12 24l42 154c3 11 14 18 25 16c11 -3 18 -14 15 -25l-11 -48c20 17 43 31 65 31c13 0 25 -6 33 -16c11 -16 13 -41 11 -66c39 31 57 60 68 73c10 5 23 1 28 -9s1 -23 -9 -28c-51 -50 -78 -87 -97 -100c-3 -6 -9 -9 -14 -9c-3 -1 -5 -2 -8 -2
c-2 0 -4 0 -6 1c-10 3 -17 14 -14 25c11 39 15 83 8 90c-24 0 -78 -72 -99 -103c-5 -9 -16 -12 -25 -8z" />
    <glyph glyph-name="o" unicode="o" horiz-adv-x="185" 
d="M1 62c-1 3 -1 6 -1 9v3c0 10 2 19 4 27c8 23 21 41 42 53c12 7 26 10 40 8c20 -4 34 -14 44 -30c12 -20 14 -41 9 -62c-1 -5 -2 -10 -4 -15c7 6 13 11 18 16c10 10 27 29 36 39c7 8 19 9 26 2c3 -3 4 -7 5 -11v-4c-1 -3 -2 -6 -4 -8c-13 -17 -36 -41 -53 -55
c-7 -7 -15 -12 -24 -16c-10 -4 -19 -5 -29 -1c-1 0 -2 0 -2 -1c-6 -4 -11 -8 -17 -11c-9 -4 -18 -6 -27 -6c-35 0 -61 29 -63 63zM52 116c-14 -14 -19 -31 -17 -51c1 -9 4 -18 11 -24c5 -5 12 -8 19 -7c0 1 0 1 -1 1c-5 11 -7 23 -5 35c1 13 5 25 11 37c3 7 7 14 11 21h-5
c-9 -1 -17 -5 -24 -12zM93 67c-1 -5 -1 -10 2 -15c10 12 16 39 10 49c-6 -11 -11 -22 -12 -34z" />
    <glyph glyph-name="p" unicode="p" horiz-adv-x="178" 
d="M-51 -170c-11 3 -17 12 -15 21l85 337c2 1 5 2 8 2c5 2 10 3 15 2c6 -1 10 -4 13 -9c2 2 5 4 7 5c10 6 27 12 50 6c22 -6 35 -22 36 -44c1 -18 -6 -38 -20 -58l57 24c11 3 22 -2 25 -11c4 -9 -2 -19 -13 -21l-153 -51c-2 -1 -5 -1 -7 -1c-6 0 -12 3 -16 7l-48 -196
c-3 -12 -14 -13 -24 -13zM40 110l-12 -46c1 0 1 1 2 1c53 18 79 60 78 84c0 15 -22 17 -24 15c-37 3 -44 -55 -44 -54z" />
    <glyph glyph-name="q" unicode="q" horiz-adv-x="240" 
d="M9 72c-13 20 -15 44 -6 72c19 59 70 86 111 86c13 0 25 -6 32 -16c6 -9 8 -20 4 -30c-62 -190 -85 -335 -59 -362c28 3 89 115 154 304c3 9 14 15 23 11c10 -3 15 -13 11 -23c-28 -84 -110 -311 -180 -327c-3 -1 -5 -1 -8 -1c-9 0 -18 4 -25 10c-33 33 -23 130 3 236
c-16 4 -44 15 -60 40zM38 133c-5 -17 -5 -31 2 -42c9 -14 27 -21 38 -24c11 43 24 86 37 126c-22 0 -62 -12 -77 -60z" />
    <glyph glyph-name="r" unicode="r" horiz-adv-x="168" 
d="M-8 0c-9 2 -16 11 -15 21c0 1 1 1 1 2l46 167c3 10 13 16 24 14c10 -2 17 -13 14 -23l-12 -53c25 26 59 46 103 49c10 0 20 -8 20 -18c1 -11 -8 -20 -18 -20c-103 -6 -139 -123 -139 -125c-2 -7 -8 -12 -14 -14c-3 -1 -7 -1 -10 0z" />
    <glyph glyph-name="s" unicode="s" horiz-adv-x="142" 
d="M-14 17c-1 10 7 18 17 19c5 0 21 3 27 12c4 7 1 20 -7 35c-26 51 -11 92 16 110c8 6 17 8 26 8s17 -3 23 -10c5 -6 7 -14 6 -22c-4 -19 -30 -36 -48 -45c1 -8 4 -16 9 -24c9 -18 13 -34 12 -48c10 2 29 13 55 45c6 8 17 9 25 3s9 -18 3 -25c-30 -36 -60 -57 -85 -59
c-1 -1 -3 -1 -4 -1c-4 0 -8 1 -11 2c-18 -15 -43 -17 -46 -17h-1c-9 0 -17 7 -17 17z" />
    <glyph glyph-name="u" unicode="u" horiz-adv-x="210" 
d="M17 22c-26 42 -3 130 3 147c4 9 14 14 23 10c8 -4 13 -15 9 -24c-7 -20 -30 -118 6 -118c57 -4 76 128 76 129c2 10 11 16 20 14c10 -2 16 -12 14 -22c-1 -3 -5 -68 -23 -107c6 -7 12 -10 19 -10c19 0 41 29 58 88c6 8 17 9 24 2c8 -6 9 -18 3 -26
c-7 -9 -34 -103 -83 -103c-12 0 -25 6 -40 20c-15 -17 -42 -22 -68 -22c-23 0 -35 12 -41 22z" />
    <glyph glyph-name="v" unicode="v" horiz-adv-x="240" 
d="M31 14c-30 34 -18 135 -13 165c1 10 11 18 21 16c11 -1 18 -11 17 -22c-9 -61 -7 -127 4 -135c18 0 66 63 104 133c4 9 14 13 23 10c8 -3 14 -12 12 -22c0 -6 -1 -24 9 -34c7 -7 19 -10 36 -8c11 1 20 -7 21 -17c1 -11 -6 -20 -17 -21c-30 -4 -52 3 -68 20
c-3 3 -6 6 -8 10c-29 -48 -74 -109 -112 -109c-12 0 -22 5 -29 14z" />
    <glyph glyph-name="x" unicode="x" horiz-adv-x="226" 
d="M-47 -43c-6 8 -5 19 3 25c0 1 56 45 104 90c13 11 25 24 35 35c-11 10 -19 18 -26 26l-6 6c-28 -40 -37 -41 -38 -42c-7 -7 -19 -6 -26 1c-6 7 -6 19 2 25c0 1 26 27 39 46c6 9 14 11 18 12c14 1 23 -9 37 -23c7 -7 14 -16 24 -24c19 19 39 29 60 29c14 0 27 -4 40 -13
c9 -5 11 -16 6 -25c-6 -8 -17 -10 -25 -5c-7 4 -14 7 -20 7c-11 0 -21 -5 -32 -15c24 -17 57 -31 102 -38c9 -1 16 -10 15 -20c-1 -11 -10 -15 -20 -15c-54 7 -93 26 -122 46c-11 -13 -24 -27 -38 -40c-49 -46 -106 -91 -107 -91c-3 -3 -7 -4 -11 -4c-5 0 -11 2 -14 7z" />
    <glyph glyph-name="y" unicode="y" horiz-adv-x="190" 
d="M-20 -220c-14 19 -11 49 9 88c27 56 78 120 126 174l1 11c-19 -33 -40 -49 -63 -47c-12 0 -23 6 -30 16c-13 18 -15 50 -9 96c5 32 13 60 13 61c3 9 12 15 21 12c10 -3 15 -12 12 -21c-11 -41 -22 -109 -9 -128c2 -2 3 -2 4 -2c22 -2 54 67 68 130c2 8 11 14 19 13
c9 -1 16 -9 15 -18c0 -3 -1 -36 -4 -81c40 42 71 71 74 74c7 6 17 6 24 -1c6 -7 6 -18 -1 -24c-1 -1 -48 -46 -101 -105c-6 -56 -14 -116 -27 -158c-18 -61 -63 -98 -98 -105c-17 0 -32 0 -44 15zM20 -147c-16 -32 -15 -48 -12 -52c2 -3 8 -2 10 -2c21 4 56 31 71 80
c9 28 15 65 20 103c-36 -43 -70 -89 -89 -129z" />
    <glyph glyph-name="z" unicode="z" horiz-adv-x="190" 
d="M1 98c-6 9 -4 21 5 27c31 21 80 51 114 51c16 0 31 -7 33 -24c3 -19 -10 -37 -35 -68c-9 -13 -26 -34 -31 -45c19 0 70 23 114 51c3 2 7 3 10 3c7 0 13 -3 17 -9c6 -10 3 -22 -6 -27c-45 -28 -100 -57 -136 -57c-13 0 -23 3 -31 11c-23 26 5 62 33 97c6 8 15 19 20 28
c-18 -6 -51 -23 -79 -43c-3 -2 -7 -3 -11 -3c-6 0 -13 2 -17 8z" />
    <glyph glyph-name="b" unicode="b" horiz-adv-x="207" 
d="M0 61c1 4 1 8 2 11c6 99 43 260 91 341c5 8 10 15 17 21c5 5 12 9 20 9c15 2 28 -8 32 -23c2 -9 2 -18 1 -28c-6 -48 -39 -121 -60 -164c-10 -19 -20 -39 -29 -59c-1 -1 -1 -2 0 -3c14 -16 28 -32 39 -50c7 -13 14 -26 17 -41c1 -2 3 -3 5 -2c4 0 8 1 12 2
c29 10 56 38 74 61c5 6 11 9 19 7c8 -1 12 -6 14 -14v-6c-1 -6 -5 -10 -9 -14c0 -1 -1 -2 -1 -2c-15 -18 -32 -35 -51 -48s-38 -23 -62 -22v-2c-11 -32 -27 -38 -55 -47h-13c-3 1 -6 1 -9 2c-27 7 -45 24 -52 52c-1 3 -1 6 -2 10v9zM37 60c-2 -15 6 -28 21 -33
c17 -7 34 2 38 20c2 9 1 17 -2 26c-9 23 -24 42 -39 60l-12 -21c-1 -1 -1 -1 -1 -2c-2 -17 -4 -33 -5 -50zM126 398c-28 -45 -44 -104 -56 -155c0 1 0 2 1 2c14 30 27 59 39 90c7 18 13 35 17 54c1 4 1 8 2 12c-2 -1 -2 -2 -3 -3z" />
    <glyph glyph-name="N" unicode="N" horiz-adv-x="709" 
d="M38 -207c-9 6 -12 18 -6 27c121 187 282 652 283 657c4 10 15 16 26 12c10 -4 15 -15 12 -25c-3 -6 -21 -59 -49 -134c9 -38 135 -222 273 -410c9 178 108 529 113 546c3 11 14 17 25 14c10 -3 16 -14 13 -24c-1 -5 -130 -462 -110 -591c11 -15 22 -29 33 -44
c6 -8 4 -21 -4 -27c-4 -3 -8 -4 -12 -4c-6 0 -12 3 -16 8c-7 9 -18 23 -31 41c-3 2 -5 5 -6 9c-81 108 -240 326 -297 431c-59 -154 -145 -365 -220 -480c-4 -6 -10 -9 -16 -9c-4 0 -8 1 -11 3z" />
    <glyph glyph-name="W" unicode="W" horiz-adv-x="618" 
d="M106 -206c-99 26 -40 259 13 465c19 76 43 170 40 195c-5 4 -9 10 -9 17c0 10 8 19 19 19c8 0 16 -4 21 -10c17 -22 5 -78 -34 -231c-36 -140 -102 -402 -40 -418c95 -26 190 177 219 257c4 10 14 15 24 12s15 -13 13 -23c-12 -50 -37 -191 -2 -236c7 -9 15 -12 26 -12
c6 0 27 4 62 59c90 143 176 476 129 575c-4 9 0 21 10 25c9 5 21 1 25 -9c55 -117 -43 -472 -132 -612c-33 -52 -64 -77 -94 -77c-23 0 -42 9 -56 27c-24 30 -28 82 -26 133c-43 -77 -106 -160 -181 -160c-9 0 -18 1 -27 4z" />
    <glyph glyph-name="V" unicode="V" horiz-adv-x="482" 
d="M123 -170c-84 325 -61 618 -29 659c7 10 16 11 20 11c11 0 19 -8 19 -19c0 -7 -4 -14 -10 -17c-18 -34 -47 -298 37 -624c0 -1 1 -2 2 -2c2 0 2 1 3 1c127 412 252 612 380 614c11 0 19 -8 19 -19c0 -10 -8 -19 -19 -19c-74 -1 -194 -103 -344 -587
c-5 -17 -21 -28 -39 -28h-1c-18 0 -33 13 -38 30z" />
    <glyph glyph-name="comma" unicode="," horiz-adv-x="190" 
d="M79 21c-6 6 -7 16 -1 22c13 12 30 52 38 73c3 8 12 12 20 10c8 -3 12 -12 9 -20c-5 -18 -34 -90 -55 -90c-4 0 -8 2 -11 5z" />
    <glyph glyph-name="zero" unicode="0" horiz-adv-x="406" 
d="M119 7c-83 31 -116 146 -75 257c27 75 95 154 181 154c14 0 28 -2 42 -7c9 -3 14 -11 13 -19l1 -1c57 -21 75 -95 75 -98c8 -44 3 -93 -13 -139c-35 -93 -110 -154 -182 -154c-15 0 -29 2 -42 7zM81 251c-34 -91 -11 -184 51 -207c9 -3 19 -5 29 -5c55 0 116 52 145 129
c14 39 18 80 12 117c-8 31 -31 72 -68 72c-18 0 -39 -9 -63 -27c-3 -2 -8 -3 -12 -3c-6 0 -12 2 -16 8c-5 6 -5 14 -2 20c-33 -23 -60 -60 -76 -104z" />
    <glyph glyph-name="one" unicode="1" horiz-adv-x="170" 
d="M43 1c-10 2 -17 12 -14 22c25 106 54 231 71 309l-31 -36c-4 -4 -9 -7 -15 -7c-4 0 -8 2 -12 5c-8 7 -8 19 -2 26l80 92c5 6 15 8 22 4c8 -4 12 -12 10 -21c0 -2 -47 -216 -87 -381c-2 -8 -9 -14 -18 -14c-1 0 -3 0 -4 1z" />
    <glyph glyph-name="two" unicode="2" horiz-adv-x="310" 
d="M-15 16c-2 8 2 17 9 22c139 83 183 229 186 294c2 31 -4 43 -6 47c-2 -1 -5 -2 -11 -8c-4 -3 -8 -7 -11 -10c8 -1 14 -6 17 -13c3 -11 -3 -22 -13 -25c-9 -3 -20 -6 -30 -6c-11 0 -21 3 -27 13c-12 20 6 42 38 71c22 20 40 19 51 15c13 -5 29 -19 32 -58
c6 -78 -39 -221 -153 -317c51 3 127 13 199 42c11 5 22 0 26 -10c4 -11 0 -22 -10 -26c-101 -41 -204 -47 -251 -47c-17 0 -26 1 -28 1c-9 0 -16 6 -18 15z" />
    <glyph glyph-name="three" unicode="3" horiz-adv-x="323" 
d="M15 80c-4 10 1 21 11 25s21 -1 25 -11c0 0 20 -48 58 -54c29 -5 65 16 103 60c22 25 47 62 36 90c-14 36 -81 51 -103 54c-8 1 -14 6 -16 14s1 16 7 21c35 24 86 71 85 94c0 2 0 6 -8 11c-23 13 -69 -43 -89 -76c-5 -9 -17 -12 -26 -7c-9 6 -12 18 -7 27
c7 11 60 96 115 96c26 0 54 -22 54 -49c2 -36 -37 -76 -67 -102c33 -10 76 -30 91 -69c14 -37 0 -81 -43 -130s-84 -74 -123 -74c-45 0 -89 38 -103 80z" />
    <glyph glyph-name="four" unicode="4" horiz-adv-x="237" 
d="M22 173c-55 34 -14 185 0 231c3 10 13 16 23 13s16 -14 13 -24c-24 -79 -36 -176 -16 -188c1 -1 19 -11 87 52c1 1 2 2 4 3c24 82 53 142 56 147c4 9 15 13 25 9c9 -5 13 -16 8 -25c-1 -2 -97 -203 -85 -371c1 -10 -7 -19 -17 -20h-1c-10 0 -18 8 -19 17
c-4 60 4 123 17 180c-23 -17 -48 -31 -71 -31c-8 0 -16 2 -24 7z" />
    <glyph glyph-name="five" unicode="5" horiz-adv-x="300" 
d="M25 98c-4 10 0 21 10 25s21 0 25 -10c22 -53 57 -80 94 -73c36 7 73 49 73 115c0 65 -40 86 -100 86c-19 0 -36 -3 -45 -5c-6 -2 -13 0 -18 5c-5 4 -7 11 -5 17l26 123c2 8 8 14 16 15l158 24c10 2 20 -5 22 -16c1 -10 -6 -20 -16 -22l-145 -22l-18 -82
c33 3 85 3 123 -27c27 -21 41 -53 41 -96c0 -71 -43 -155 -123 -155c-41 0 -89 25 -118 98z" />
    <glyph glyph-name="six" unicode="6" horiz-adv-x="266" 
d="M37 43c-57 100 82 341 98 368c5 9 17 12 27 7c9 -6 12 -18 7 -27c-22 -36 -59 -107 -83 -175c22 8 42 12 59 12c41 0 67 -18 80 -29c34 -30 47 -80 31 -122c-19 -49 -67 -77 -133 -77c-51 0 -75 23 -86 43zM71 166c-11 -42 -14 -80 0 -103c9 -16 26 -24 52 -24
c49 0 84 19 96 51c10 28 2 60 -20 80c-14 12 -32 18 -52 18c-23 0 -48 -7 -76 -22z" />
    <glyph glyph-name="seven" unicode="7" horiz-adv-x="240" 
d="M34 360c-10 3 -16 13 -14 24c3 11 14 17 24 14c38 -10 123 17 152 28c2 1 2 1 3 1h2c0 1 1 1 2 1h2c2 -1 3 -1 3 -1c1 0 2 0 2 -1h2c4 -3 4 -3 6 -5l1 -2c1 0 1 -1 1 -1l1 -2c1 -2 1 -3 2 -4v-3v-2v-2v-2l-1 -2s-1 -1 -1 -2c-1 -2 -103 -200 -89 -378
c0 -11 -8 -20 -19 -21c-11 0 -20 8 -21 18c-10 140 44 286 74 357c-30 -9 -69 -18 -102 -18c-11 0 -21 1 -30 3z" />
    <glyph glyph-name="eight" unicode="8" horiz-adv-x="258" 
d="M21 287c-4 56 42 115 88 135c10 4 19 6 28 6c12 0 24 -4 32 -14c26 -28 16 -89 -31 -185c27 30 52 55 62 65c4 3 9 5 13 5c6 0 11 -2 15 -6c7 -7 7 -20 -1 -27c-39 -38 -77 -81 -105 -120c32 -58 56 -99 37 -127c-11 -16 -30 -19 -45 -19c-8 0 -15 1 -19 2
c-35 4 -48 22 -53 37c-9 28 8 68 34 109c-26 45 -52 95 -55 139zM124 386c-28 -12 -67 -55 -64 -96c2 -24 12 -51 26 -79c78 149 55 177 55 177c-1 1 -2 1 -4 1c-3 0 -8 -1 -13 -3zM98 110c-16 -26 -23 -47 -19 -59c2 -6 9 -10 21 -11c22 -3 27 1 27 1c3 8 -14 40 -29 69z
" />
    <glyph glyph-name="nine" unicode="9" horiz-adv-x="181" 
d="M41 232c-20 20 -27 53 -16 84c23 69 80 97 112 107c11 4 22 2 31 -5v-1c5 2 9 2 14 1c10 -3 16 -14 13 -24c-1 -2 -61 -198 -48 -373c1 -11 -7 -20 -18 -21c-11 0 -19 8 -20 18c-6 73 1 148 10 212c-7 -5 -13 -9 -18 -11c-7 -2 -14 -3 -20 -3c-15 0 -29 5 -40 16zM61 304
c-7 -21 0 -37 7 -44c4 -4 10 -8 19 -4c20 7 44 44 53 127c-26 -10 -63 -32 -79 -79z" />
    <glyph glyph-name="hyphen" unicode="-" horiz-adv-x="349" 
d="M109 151c-10 0 -17 15 -17 32c0 18 8 31 18 31c1 0 94 -4 182 11c9 2 17 -11 18 -29c1 -17 -6 -33 -15 -34c-59 -10 -120 -12 -155 -12c-19 0 -31 1 -31 1z" />
    <glyph glyph-name="plus" unicode="+" horiz-adv-x="221" 
d="M23 242c-3 12 4 22 16 24c13 2 31 4 50 7c0 18 -1 36 -1 49c0 11 9 20 21 20h1c11 -2 21 -12 21 -23s1 -26 1 -41c21 3 38 4 40 5h4c10 -1 19 -9 21 -19c2 -12 -5 -23 -17 -24c0 0 -22 -3 -48 -6c0 -26 -1 -48 -1 -50c0 -12 -9 -20 -21 -19s-22 11 -22 23c0 1 1 18 1 41
c-16 -2 -30 -4 -40 -5c-12 -2 -23 6 -26 18z" />
    <glyph glyph-name="asterisk" unicode="*" horiz-adv-x="180" 
d="M35 375c-5 8 -4 19 4 25s18 14 29 23c-16 15 -27 28 -30 31c-7 7 -6 18 1 25c7 6 18 6 25 -2c4 -4 9 -10 14 -15c2 13 3 23 4 26c1 9 10 16 20 14c9 -1 15 -10 14 -20c-1 -5 -2 -10 -2 -16c2 4 5 7 6 9c5 8 16 11 24 7c8 -5 11 -16 6 -24c-5 -10 -18 -23 -31 -36
c11 -9 20 -17 26 -20c9 -4 13 -14 9 -23c-3 -6 -9 -10 -16 -10c-2 0 -5 1 -7 2c-7 3 -15 9 -24 15c1 -6 1 -11 2 -15c2 -9 -5 -20 -14 -22c-2 -1 -3 -1 -4 -1c-16 0 -18 22 -18 34c-7 -5 -11 -9 -13 -10c-3 -2 -7 -3 -11 -3c-5 0 -10 2 -14 6z" />
    <glyph glyph-name="asciicircum" unicode="^" horiz-adv-x="238" 
d="M38 583c-12 8 -16 24 -9 37l66 106c5 8 13 12 22 13c9 0 17 -4 22 -11l77 -102c9 -12 7 -29 -5 -38c-5 -4 -10 -5 -16 -5c-8 0 -17 4 -22 11l-53 70l-45 -72c-5 -8 -14 -13 -23 -13c-5 0 -9 1 -14 4z" />
    <glyph glyph-name="tilde" unicode="&#x2dc;" horiz-adv-x="523" 
d="M264 497c-5 7 -4 18 1 25c8 12 25 25 45 25c14 0 30 -6 46 -24c9 -10 18 -14 27 -14c22 0 39 27 40 28c4 7 12 8 18 1c5 -6 5 -18 1 -25c-11 -17 -34 -39 -59 -39c-14 0 -28 6 -43 22c-11 12 -21 16 -30 16c-16 0 -27 -14 -28 -15c-5 -7 -13 -7 -18 0z" />
    <glyph glyph-name="slash" unicode="/" horiz-adv-x="536" 
d="M136 154c-9 5 -12 18 -6 27c68 106 222 359 223 361c4 7 10 10 17 10c3 0 7 -1 10 -3c9 -6 12 -18 7 -27c-2 -3 -155 -256 -224 -363c-4 -5 -10 -9 -17 -9c-3 0 -7 1 -10 4z" />
    <glyph glyph-name="colon" unicode=":" horiz-adv-x="119" 
d="M31 197c0 17 14 31 31 31s31 -14 31 -31c0 -18 -14 -32 -31 -32s-31 14 -31 32zM62 17c-17 0 -31 14 -31 31c0 18 14 31 31 31s31 -13 31 -31c0 -17 -14 -31 -31 -31z" />
    <glyph glyph-name="semicolon" unicode=";" horiz-adv-x="116" 
d="M37 1c-6 6 -6 16 0 22c13 13 30 52 38 74c3 8 12 12 20 9s12 -12 9 -20c-2 -7 -23 -63 -44 -85c-4 -3 -8 -5 -12 -5s-7 2 -11 5zM63 199c0 13 10 24 23 24s23 -11 23 -24s-10 -23 -23 -23s-23 10 -23 23z" />
    <glyph glyph-name="less" unicode="&#x3c;" horiz-adv-x="336" 
d="M43 106c-1 7 2 15 8 20l181 164c5 4 10 6 16 6c7 0 14 -3 19 -8c9 -10 8 -26 -2 -35l-158 -143l181 -128c11 -8 14 -23 6 -34c-5 -7 -12 -11 -20 -11c-5 0 -10 2 -14 5l-207 145c-6 5 -10 11 -10 19z" />
    <glyph glyph-name="greater" unicode="&#x3e;" horiz-adv-x="327" 
d="M47 -52c-8 11 -5 26 6 34l181 128l-158 143c-10 9 -11 25 -2 35c5 5 12 8 19 8c6 0 11 -2 16 -6l181 -164c6 -5 9 -13 8 -20c0 -8 -4 -14 -10 -19l-206 -145c-5 -3 -10 -5 -15 -5c-7 0 -15 4 -20 11z" />
    <glyph glyph-name="equal" unicode="=" horiz-adv-x="302" 
d="M52 155c-15 4 -24 19 -21 34c4 15 19 24 34 20c11 -3 27 -4 44 -4c49 0 112 9 138 14c15 3 30 -8 32 -23c3 -15 -7 -30 -22 -32c-11 -2 -85 -15 -147 -15c-22 0 -42 2 -58 6zM52 249c-15 4 -24 19 -21 34c4 15 19 24 34 20c11 -2 25 -3 42 -3c48 0 113 9 140 13
c15 3 30 -7 32 -22c3 -16 -7 -30 -22 -33c-11 -2 -85 -14 -147 -14c-22 0 -42 1 -58 5z" />
    <glyph glyph-name="exclam" unicode="!" horiz-adv-x="196" 
d="M44 15c0 169 106 354 111 361c4 7 11 11 18 11c4 0 8 -1 11 -3c10 -6 13 -19 7 -29c-1 -2 -105 -182 -105 -340c0 -12 -9 -21 -21 -21s-21 9 -21 21zM56 -110c-15 0 -28 12 -28 27c0 16 13 28 28 28s27 -12 27 -28c0 -15 -12 -27 -27 -27z" />
    <glyph glyph-name="question" unicode="?" horiz-adv-x="310" 
d="M88 267c-12 0 -23 11 -23 23c0 65 53 117 117 117s116 -52 116 -116c1 -11 1 -103 -108 -151c-79 -35 -57 -116 -54 -125c4 -12 -3 -25 -15 -29c-3 0 -5 -1 -7 -1c-10 0 -19 7 -22 17c-13 44 -14 138 80 180c83 37 81 104 81 107c0 40 -32 72 -71 72s-71 -32 -71 -71
c0 -12 -10 -23 -23 -23zM116 -100c-18 0 -32 14 -32 32s14 33 32 33s32 -15 32 -33s-14 -32 -32 -32z" />
    <glyph glyph-name="quotesingle" unicode="'" horiz-adv-x="98" 
d="M34 356c-11 36 -2 112 -1 121c1 11 11 19 22 17c11 -1 18 -11 17 -22c-4 -29 -7 -83 0 -105c3 -10 -3 -21 -13 -24c-11 -4 -22 2 -25 13z" />
    <glyph glyph-name="quotedbl" unicode="&#x22;" horiz-adv-x="189" 
d="M103 362c-8 35 6 108 8 117c2 10 12 17 22 15c11 -2 17 -12 15 -23c-5 -28 -12 -80 -7 -101c2 -10 -4 -20 -15 -23c-10 -2 -20 4 -23 15zM35 363c-9 36 5 109 7 117c2 11 12 17 22 15c11 -2 17 -12 15 -22c-5 -28 -12 -80 -7 -101c2 -10 -4 -20 -14 -23
c-11 -2 -21 4 -23 14z" />
    <glyph glyph-name="numbersign" unicode="#" horiz-adv-x="465" 
d="M5 159c-7 13 -1 28 12 34c37 18 78 31 119 39c28 69 56 117 58 121c5 8 13 12 22 12c5 0 9 -1 13 -3c12 -7 16 -23 9 -35c0 -1 -19 -34 -42 -85c21 3 41 5 60 6c25 60 49 101 51 105c5 8 13 12 22 12c5 0 9 -1 13 -3c12 -7 16 -23 9 -35c0 -1 -18 -31 -38 -77
c37 0 63 -2 66 -2c14 -1 24 -13 23 -28c-1 -14 -13 -24 -28 -23c0 0 -34 3 -83 1c-6 -14 -11 -30 -16 -46c80 8 144 3 149 2c14 -1 24 -13 23 -27s-13 -25 -27 -24c-2 0 -74 6 -161 -4c-10 -41 -17 -84 -17 -125c0 -14 -12 -26 -26 -26s-25 12 -25 26c0 39 5 78 13 117
c-21 -4 -42 -9 -63 -16c-8 -33 -12 -68 -12 -101c0 -14 -12 -26 -26 -26s-25 12 -25 26c0 26 2 53 6 80v-1c-4 -1 -7 -2 -11 -2c-10 0 -19 5 -23 14c-6 13 -1 28 12 35c11 5 23 10 35 15c5 20 11 40 18 59c-26 -7 -52 -15 -76 -27c-4 -2 -7 -2 -11 -2c-10 0 -19 5 -23 14z
M155 133c22 5 43 9 64 12c5 17 10 34 16 50c-20 -2 -40 -4 -61 -8c-7 -17 -13 -35 -19 -54z" />
    <glyph glyph-name="dollar" unicode="$" horiz-adv-x="271" 
d="M22 108c-13 51 35 106 37 108c6 7 16 8 23 2s8 -17 2 -24c-11 -12 -37 -49 -30 -77c3 -10 10 -18 21 -25c11 34 23 67 35 99c-15 17 -19 38 -17 55c4 34 33 61 67 63c10 22 17 36 18 38c4 8 14 12 22 8s12 -14 8 -22c-1 -1 -6 -11 -13 -28c11 -5 18 -11 23 -18
c18 -25 7 -59 6 -63c-3 -9 -12 -13 -21 -11c-9 3 -13 13 -11 21c2 6 6 24 -1 34c-2 3 -6 5 -10 7c-9 -21 -20 -46 -31 -73c6 -4 13 -6 20 -8c36 -9 46 -30 50 -43c6 -24 -5 -53 -29 -75c-21 -20 -47 -30 -73 -30c-7 0 -14 1 -21 2c-10 -38 -17 -73 -17 -101
c0 -10 -7 -17 -16 -17c-10 0 -17 7 -17 17c0 31 7 71 19 112c-23 12 -38 29 -44 49zM138 171c-11 -30 -22 -61 -32 -91c22 -4 45 3 62 20c15 13 23 31 19 43c-2 9 -10 15 -25 19c-9 2 -17 5 -24 9z" />
    <glyph glyph-name="at" unicode="@" horiz-adv-x="408" 
d="M57 -26c-46 44 -55 126 -22 208c29 73 96 152 196 152c56 0 97 -14 119 -42c19 -23 25 -55 17 -93c-7 -32 -23 -64 -47 -91c-16 -19 -55 -62 -90 -62c-8 0 -15 2 -22 7c-12 -10 -24 -15 -39 -15c-14 0 -27 5 -38 16c-20 19 -26 50 -16 80c21 63 74 89 104 99
c10 3 22 1 31 -6s13 -18 12 -30c-4 -49 -14 -82 -26 -106c38 19 81 75 89 117c5 25 3 44 -8 57c-14 17 -44 26 -86 26c-78 0 -133 -68 -156 -125c-26 -65 -21 -129 11 -160c16 -15 38 -23 66 -23c34 0 75 11 123 33c11 5 23 0 28 -11s1 -23 -10 -28
c-59 -27 -105 -37 -141 -37c-46 0 -76 16 -95 34zM155 120c-5 -16 -1 -29 6 -36c5 -5 11 -3 13 -2c15 5 35 36 44 104c-22 -10 -50 -29 -63 -66z" />
    <glyph glyph-name="Euro" unicode="&#x20ac;" 
d="M33 111c-5 15 4 31 18 35c1 0 49 15 107 33c33 104 131 211 244 221c55 5 110 -27 133 -79c6 -14 -1 -30 -15 -36c-14 -7 -30 0 -37 14c-13 30 -44 49 -76 45c-80 -7 -143 -78 -180 -143c43 14 84 27 112 37c15 5 31 -3 36 -18c5 -14 -3 -30 -17 -35
c-38 -13 -99 -32 -155 -50c-3 -14 -4 -28 -5 -42c58 19 123 39 163 53c14 5 30 -3 35 -18c5 -14 -3 -30 -17 -35c-42 -15 -112 -37 -173 -56c14 -43 49 -71 95 -71c57 0 124 43 168 114c5 9 14 14 24 14c5 0 10 -1 15 -4c13 -9 17 -26 9 -39c-55 -88 -141 -140 -218 -140
c-71 0 -125 43 -146 110c-37 -12 -63 -20 -64 -20c-3 -1 -5 -2 -8 -2c-12 0 -23 8 -27 20c-4 15 4 31 19 35c0 0 30 9 71 22c-1 13 -1 27 1 40c-44 -13 -76 -23 -77 -23c-3 -1 -6 -2 -8 -2c-12 0 -23 8 -27 20z" />
    <glyph glyph-name="percent" unicode="%" horiz-adv-x="347" 
d="M17 -59c-8 5 -10 16 -5 24c78 117 157 233 238 347c3 5 7 10 11 15c2 4 6 7 12 8h4c1 0 2 0 2 -1c12 -3 17 -16 10 -26c-13 -18 -26 -36 -38 -54c-45 -65 -89 -129 -133 -193c-26 -38 -52 -76 -77 -115c-6 -8 -16 -10 -24 -5zM47 234c-3 10 -2 20 0 30s5 21 7 31
c2 8 3 15 3 22c0 9 5 16 15 18h4c7 -1 12 -7 18 -11c13 -10 25 -22 35 -36c5 -8 10 -17 12 -27c3 -16 -2 -29 -15 -39c-14 -10 -29 -16 -46 -15c-16 0 -29 11 -33 27zM162 3c1 12 3 25 7 37c3 9 5 19 5 29c0 7 3 12 9 15s12 3 17 -1c22 -15 55 -45 58 -73
c2 -15 -3 -27 -15 -37c-10 -8 -22 -12 -34 -14c-8 -2 -16 -2 -23 1c-20 8 -24 24 -24 43zM197 11c-1 -6 -1 -11 0 -17c0 -2 1 -2 3 -2c7 1 13 3 18 6c7 3 8 6 5 13c-5 10 -12 17 -19 24h-1zM80 255v-13c0 -1 1 -1 2 -1c8 1 16 3 23 8c2 2 3 4 2 6c0 8 -15 24 -20 29
c-3 -10 -6 -19 -7 -29z" />
    <glyph glyph-name="ampersand" unicode="&#x26;" horiz-adv-x="397" 
d="M14 -10c0 36 24 80 43 109c24 37 48 75 72 113c3 4 5 9 8 13c2 2 2 3 2 5c-5 36 -4 72 6 108c7 23 17 44 32 63c8 9 17 17 29 22c9 5 19 6 30 2c12 -5 19 -15 21 -28c3 -13 1 -26 -3 -38c-5 -19 -13 -36 -22 -53c-15 -29 -32 -57 -49 -85c-2 -2 -2 -4 -2 -6
c11 -56 28 -92 61 -138c1 1 2 1 3 2c40 31 78 63 116 97c4 4 9 6 14 6c6 0 11 -2 14 -6c8 -9 7 -21 -1 -29c-30 -28 -61 -54 -92 -80c-8 -6 -16 -12 -23 -18l-2 -1c4 -3 7 -6 10 -8c27 -21 57 -36 90 -44c2 -1 5 -1 7 -1c11 -2 18 -13 16 -24c-1 -11 -12 -18 -23 -16
c-47 9 -96 35 -131 67c-6 -2 -10 -5 -15 -8c-37 -28 -92 -62 -139 -72c-4 -1 -9 -1 -13 -2h-12c-3 1 -6 1 -9 2c-23 5 -38 24 -38 48zM59 14c-3 -8 -6 -15 -5 -24c0 -5 2 -8 8 -10h3c5 0 11 0 16 1c39 10 88 43 120 66l9 6c-28 35 -47 75 -60 118l-11 -18
c-19 -29 -39 -58 -56 -88c-9 -17 -18 -33 -24 -51zM178 298c0 -2 0 -5 -1 -7c5 7 10 15 14 23c10 17 27 50 27 71l-2 -2c-24 -22 -33 -54 -38 -85z" />
    <glyph glyph-name="parenleft" unicode="(" horiz-adv-x="216" 
d="M118 -122c-197 255 -1 450 1 452c4 4 9 6 15 6c5 0 10 -2 14 -6c8 -8 8 -21 0 -29c-8 -6 -173 -173 1 -399c7 -8 6 -21 -3 -28c-4 -3 -8 -4 -13 -4c-6 0 -12 3 -15 8z" />
    <glyph glyph-name="parenright" unicode=")" horiz-adv-x="170" 
d="M68 -136c-9 7 -10 20 -3 29c179 233 9 402 2 409c-9 8 -9 21 -1 29c4 4 10 7 15 7s10 -2 14 -6c2 -2 204 -203 2 -464c-4 -5 -10 -8 -16 -8c-4 0 -9 1 -13 4z" />
    <glyph glyph-name="braceleft" unicode="{" horiz-adv-x="269" 
d="M21 120c-1 8 2 15 8 20l51 42c2 72 20 122 55 149c37 29 78 19 80 19c12 -3 20 -15 17 -27c-3 -13 -16 -20 -28 -17c-1 0 -22 4 -42 -11c-24 -20 -37 -62 -37 -124c0 -7 -3 -13 -8 -18l-34 -28l31 -18c9 -5 13 -15 11 -25c-13 -58 -17 -150 11 -172c5 -3 10 -5 17 -5
c14 0 32 7 46 15c11 6 25 1 31 -10c5 -11 1 -24 -10 -30c-25 -13 -47 -20 -67 -20c-17 0 -31 5 -44 14c-54 41 -40 155 -32 202l-45 26c-6 4 -11 11 -11 18z" />
    <glyph glyph-name="bar" unicode="|" horiz-adv-x="219" 
d="M92 -60c-10 0 -18 8 -17 18c0 93 9 358 9 361c0 9 8 18 18 17c10 0 18 -9 17 -19c0 -2 -8 -267 -9 -359c0 -10 -8 -18 -18 -18z" />
    <glyph glyph-name="braceright" unicode="}" horiz-adv-x="304" 
d="M84 -120c-11 6 -15 19 -10 30c6 12 20 16 31 10c14 -8 32 -15 46 -15c7 0 12 2 17 5c28 22 24 114 11 172c-2 10 2 20 11 25l31 18l-34 28c-5 5 -8 11 -8 18c0 62 -13 104 -37 124c-20 16 -42 11 -42 11c-13 -3 -25 5 -27 17c-3 12 4 24 16 27c2 0 43 10 80 -19
c35 -27 53 -77 55 -149l51 -42c6 -5 9 -12 8 -20c-1 -7 -5 -14 -11 -18l-45 -26c8 -47 22 -161 -32 -202c-13 -9 -27 -14 -44 -14c-20 0 -42 7 -67 20z" />
    <glyph glyph-name="bracketleft" unicode="[" horiz-adv-x="380" 
d="M70 -134c-5 4 -8 11 -8 18l14 426c0 11 8 20 19 22l118 17c12 2 24 -7 26 -19c2 -13 -7 -25 -19 -26l-99 -15l-12 -379l103 17c13 2 25 -6 27 -19c2 -12 -7 -24 -19 -26l-131 -22c-8 0 -13 0 -19 6z" />
    <glyph glyph-name="bracketright" unicode="]" horiz-adv-x="341" 
d="M121 -118c-13 2 -21 14 -19 26c2 13 14 21 26 19l104 -17l-12 379l-99 15c-13 2 -21 14 -19 26c1 13 13 22 26 20l117 -18c11 -2 20 -11 20 -22l14 -426c0 -7 -3 -14 -8 -18c-5 -5 -12 -6 -19 -6z" />
    <glyph glyph-name="quoteleft" unicode="&#x2018;" horiz-adv-x="395" 
d="M128 474c-17 0 -30 14 -30 30c1 59 50 166 56 179c7 15 25 21 41 14c15 -7 21 -25 14 -40c-19 -41 -50 -119 -50 -153c-1 -17 -14 -30 -31 -30z" />
    <glyph glyph-name="quoteright" unicode="&#x2019;" horiz-adv-x="395" 
d="M128 474c-17 0 -30 14 -30 30c1 59 50 166 56 179c7 15 25 21 41 14c15 -7 21 -25 14 -40c-19 -41 -50 -119 -50 -153c-1 -17 -14 -30 -31 -30z" />
    <glyph glyph-name="quotedblleft" unicode="&#x201c;" horiz-adv-x="417" 
d="M251 474c-17 0 -30 14 -30 30c1 59 51 166 56 179c7 15 26 21 41 14s22 -25 14 -40c-19 -41 -50 -119 -50 -153c0 -17 -14 -30 -31 -30zM138 474c-17 0 -30 14 -30 30c1 59 51 166 56 179c7 15 26 21 41 14s22 -25 14 -40c-19 -41 -50 -119 -50 -153
c0 -17 -14 -30 -31 -30z" />
    <glyph glyph-name="quotedblright" unicode="&#x201d;" horiz-adv-x="417" 
d="M251 474c-17 0 -30 14 -30 30c1 59 51 166 56 179c7 15 26 21 41 14s22 -25 14 -40c-19 -41 -50 -119 -50 -153c0 -17 -14 -30 -31 -30zM138 474c-17 0 -30 14 -30 30c1 59 51 166 56 179c7 15 26 21 41 14s22 -25 14 -40c-19 -41 -50 -119 -50 -153
c0 -17 -14 -30 -31 -30z" />
    <glyph glyph-name="quotesinglbase" unicode="&#x201a;" horiz-adv-x="451" 
d="M176 -82c-14 12 -15 32 -3 46c17 18 40 76 50 108c5 17 24 26 40 21c17 -5 27 -24 21 -40c-10 -32 -46 -143 -87 -143c-8 0 -15 3 -21 8zM276 -82c-14 12 -15 32 -3 46c17 18 40 76 50 108c5 17 24 26 40 21c17 -5 27 -24 21 -40c-10 -32 -46 -143 -87 -143
c-8 0 -15 3 -21 8z" />
    <glyph glyph-name="quotedblbase" unicode="&#x201e;" horiz-adv-x="451" 
d="M176 -82c-14 12 -15 32 -3 46c17 18 40 76 50 108c5 17 24 26 40 21c17 -5 27 -24 21 -40c-10 -32 -46 -143 -87 -143c-8 0 -15 3 -21 8zM276 -82c-14 12 -15 32 -3 46c17 18 40 76 50 108c5 17 24 26 40 21c17 -5 27 -24 21 -40c-10 -32 -46 -143 -87 -143
c-8 0 -15 3 -21 8z" />
    <glyph glyph-name="underscore" unicode="_" horiz-adv-x="503" 
d="M83 -4c-10 1 -17 14 -17 30c0 15 9 28 19 27c1 0 112 -6 212 -6c50 0 98 2 128 6c10 1 19 -10 19 -26c1 -15 -6 -29 -16 -31c-32 -5 -81 -6 -132 -6c-99 0 -206 6 -213 6z" />
    <glyph glyph-name="endash" unicode="&#x2013;" horiz-adv-x="458" 
d="M113 249c-12 1 -22 20 -21 43c0 22 10 40 22 40h1c1 0 123 -5 237 14c12 2 24 -14 25 -37s-8 -43 -21 -45c-81 -14 -162 -15 -243 -15z" />
    <glyph glyph-name="trademark" unicode="&#x2122;" horiz-adv-x="456" 
d="M208 537c-5 24 6 78 16 122c-4 1 -8 3 -11 6c-8 8 -9 22 0 30l32 34c7 8 18 9 26 4c8 -4 12 -13 11 -22c10 9 21 15 32 15c25 0 29 -23 31 -43c13 14 27 23 41 23c9 0 18 -4 24 -12c20 -25 6 -100 -9 -158c-4 -14 -14 -16 -27 -16c-11 3 -18 15 -15 27
c11 41 18 84 18 107c-14 -17 -35 -54 -51 -91c-4 -11 -16 -16 -27 -12c-10 3 -16 15 -13 25c9 36 15 74 16 96c-12 -13 -30 -38 -45 -63c-6 -29 -9 -53 -7 -63c3 -12 -5 -23 -16 -26c-12 0 -23 3 -26 17zM39 639c-12 1 -21 11 -21 23c1 12 11 21 22 20c1 0 23 0 50 -1
c7 27 12 47 12 49c3 12 15 19 26 16c12 -3 19 -15 16 -26c0 -1 -4 -17 -10 -40c16 -1 30 -1 41 -1c12 0 21 -10 21 -22c0 -11 -9 -21 -21 -21c-13 0 -32 0 -51 1c-11 -43 -22 -91 -27 -111c-2 -10 -11 -17 -21 -17c-1 0 -3 0 -4 1c-12 2 -19 14 -17 25c4 19 15 62 25 103
c-22 1 -39 1 -41 1z" />
    <glyph glyph-name="copyright" unicode="&#xa9;" horiz-adv-x="559" 
d="M65 162c-28 63 -32 137 -11 208c26 86 96 187 196 187c10 0 21 -1 31 -3c17 -3 28 -20 24 -36c-3 -17 -19 -28 -36 -25c-26 5 -54 -2 -75 -18c-37 -30 -65 -73 -80 -123c-17 -56 -14 -115 8 -165c26 -59 79 -100 145 -100c92 0 165 81 190 164c17 57 14 115 -7 165
c-21 48 -58 81 -102 95c-17 5 -26 22 -22 39c5 16 23 26 39 21c63 -19 113 -65 142 -130c27 -63 31 -137 10 -208c-33 -111 -129 -209 -251 -209c-90 0 -166 56 -201 138zM294 172c-70 0 -126 57 -126 126s56 126 126 126c42 0 81 -21 104 -56c10 -14 6 -33 -8 -43
c-6 -4 -12 -6 -18 -6c-10 0 -20 5 -26 14c-12 18 -31 28 -52 28c-35 0 -63 -28 -63 -63s28 -63 63 -63c18 0 36 8 48 22c6 7 15 11 24 11c7 0 14 -3 20 -8c13 -11 15 -31 3 -44c-24 -28 -58 -44 -95 -44z" />
    <glyph glyph-name="registered" unicode="&#xae;" horiz-adv-x="506" 
d="M18 260v21v3c2 14 3 29 6 44c13 67 44 125 95 171c37 34 81 47 130 38c17 -3 28 -18 25 -35c-3 -16 -18 -27 -35 -24c-23 4 -44 0 -64 -12c-16 -10 -29 -23 -40 -37c-46 -58 -64 -123 -53 -196c4 -32 16 -61 36 -87c1 -1 1 -2 2 -3c1 2 1 4 2 6l81 297c4 12 11 20 23 23
c11 3 22 -1 30 -10c0 -1 2 -1 3 -1c9 1 19 2 28 2c17 1 33 0 48 -6c21 -9 32 -29 27 -51c-2 -13 -9 -24 -16 -34c-14 -18 -32 -34 -49 -49c-10 -8 -19 -15 -29 -23l5 -2c32 -13 64 -27 96 -40c17 -7 24 -24 18 -40c-7 -16 -25 -23 -41 -16l-112 47c-7 2 -14 5 -20 8
c-1 -1 -1 -2 -1 -3c-11 -38 -22 -77 -32 -115c-3 -13 -10 -22 -24 -26c0 -1 1 -2 2 -2c24 -15 49 -22 76 -22c88 0 160 74 184 155c15 50 17 99 -1 148c-18 52 -51 90 -105 106c-13 4 -21 17 -20 29c0 14 9 26 22 29c2 0 3 1 5 1h6c2 0 4 -1 6 -1c95 -31 148 -113 158 -210
l1 -15v-26v-2c-9 -129 -98 -263 -236 -274c-4 -1 -7 -1 -11 -2h-16c-5 1 -10 1 -15 2c-114 15 -184 109 -194 219zM245 371c-1 -6 -3 -12 -4 -18c18 15 36 29 51 47c-13 -1 -25 -3 -38 -5c-1 0 -2 -1 -3 -3z" />
    <glyph glyph-name="currency" unicode="&#xa4;" horiz-adv-x="467" 
d="M33 121c-9 10 -9 24 1 33l130 126c-4 11 -6 24 -6 37c0 25 7 48 19 66l-72 94c-8 10 -6 25 4 33c4 3 9 5 14 5c7 0 14 -3 19 -9l69 -91c13 7 27 11 41 11c18 0 34 -5 48 -15l92 89c4 4 10 6 16 6s12 -2 17 -7c9 -9 8 -24 -1 -33l-93 -89c10 -17 16 -38 16 -60
c0 -21 -6 -42 -15 -59l113 -147c8 -10 6 -25 -4 -33c-5 -3 -10 -4 -15 -4c-7 0 -13 3 -18 9l-108 140c-14 -9 -30 -14 -48 -14c-25 0 -47 11 -64 29l-122 -117c-5 -4 -10 -7 -16 -7s-12 3 -17 7zM204 317c0 -34 22 -62 48 -62c27 0 48 28 48 62c0 35 -21 63 -48 63
c-26 0 -48 -28 -48 -63z" />
    <glyph glyph-name="cent" unicode="&#xa2;" horiz-adv-x="235" 
d="M53 215c-28 28 -31 79 -8 136c19 46 54 91 90 91c8 43 14 70 14 71c2 10 12 17 23 15c10 -2 17 -12 15 -23c0 -1 -6 -30 -16 -76c1 -1 3 -2 4 -4c23 -24 21 -68 21 -73c-1 -10 -10 -18 -21 -18c-10 1 -18 10 -18 21c1 1 1 4 1 6c-7 -33 -15 -71 -23 -109
c19 15 35 37 41 47c6 9 18 11 27 6c9 -6 12 -18 6 -27c-5 -7 -41 -60 -85 -77c-14 -67 -28 -135 -41 -192c-2 -14 -11 -15 -22 -15c-11 2 -17 13 -15 23c12 54 25 117 38 180c-11 3 -22 9 -31 18zM81 337c-17 -41 -17 -78 -1 -95c4 -4 8 -6 12 -7c13 60 25 118 34 165
c-12 -8 -31 -29 -45 -63z" />
    <glyph glyph-name="sterling" unicode="&#xa3;" horiz-adv-x="489" 
d="M25 207c-2 11 5 22 16 25c5 1 79 16 161 30c12 42 18 84 23 122c10 72 17 124 59 124c29 0 43 -13 50 -24c22 -35 0 -90 -5 -101s-17 -15 -27 -11c-11 5 -15 17 -11 27c8 19 16 51 8 62c0 2 -3 5 -14 5c-8 -8 -15 -54 -19 -87c-5 -33 -10 -71 -19 -109c48 8 96 15 132 18
c11 1 21 -7 22 -19c1 -11 -7 -21 -19 -22c-38 -4 -93 -12 -147 -21c-18 -54 -45 -107 -92 -146c43 -1 97 -4 146 -15c35 -7 61 -10 81 -10c40 0 51 11 51 11c4 11 16 16 27 12c11 -3 16 -15 12 -26c-3 -8 -18 -38 -91 -38c-24 0 -53 3 -89 11c-91 20 -211 14 -212 13
c-10 0 -19 7 -21 17c-2 9 3 19 12 23c68 27 106 80 129 140c-75 -14 -138 -27 -139 -27c-11 0 -21 4 -24 16z" />
    <glyph glyph-name="yen" unicode="&#xa5;" horiz-adv-x="365" 
d="M29 222c-4 13 3 26 16 30c0 0 48 15 104 32c-81 46 -119 177 -120 184c-4 13 3 26 16 29c13 4 26 -3 29 -16c13 -45 59 -157 126 -164c47 93 85 167 86 168c6 12 20 17 32 11s16 -21 10 -32c0 -2 -32 -64 -74 -146c13 4 26 8 36 12c12 4 26 -3 30 -15s-2 -26 -15 -30
c-21 -8 -50 -17 -81 -27l-21 -41c40 13 79 26 105 35c12 4 26 -3 30 -15c4 -13 -2 -26 -15 -31c-36 -12 -97 -31 -149 -48c-28 -55 -54 -109 -74 -152c-4 -9 -13 -14 -22 -14c-3 0 -7 1 -10 2c-12 6 -17 20 -12 32c16 33 35 72 55 113c-21 -7 -34 -11 -34 -11
c-3 -1 -5 -1 -7 -1c-11 0 -20 6 -23 17c-4 12 3 26 16 29c0 1 34 11 77 25c7 13 14 27 20 40c-54 -17 -101 -32 -101 -32c-3 -1 -5 -1 -7 -1c-11 0 -20 7 -23 17z" />
    <glyph glyph-name="minus" unicode="&#x2212;" horiz-adv-x="458" 
d="M113 249c-12 1 -22 20 -21 43c0 22 10 40 22 40h1c1 0 123 -5 237 14c12 2 24 -14 25 -37s-8 -43 -21 -45c-81 -14 -162 -15 -243 -15z" />
    <glyph glyph-name="plusminus" unicode="&#xb1;" horiz-adv-x="484" 
d="M9 151c-4 18 5 32 21 33c2 0 286 15 406 26c16 1 33 -12 38 -29c5 -18 -3 -33 -19 -34c-121 -11 -406 -26 -409 -26c-2 0 -5 0 -8 1c-13 3 -25 15 -29 29zM98 357c-4 17 7 33 25 34c0 0 33 4 72 8c0 39 1 70 1 73c0 16 14 29 32 27s32 -17 32 -34v-58c23 2 44 5 59 7
c18 2 35 -9 39 -26s-6 -33 -24 -35c-19 -3 -46 -6 -74 -9c0 -27 0 -52 1 -70c0 -17 -14 -30 -32 -29h-1c-17 2 -31 16 -32 33v59c-33 -4 -58 -7 -60 -7h-7c-15 2 -28 13 -31 27z" />
    <glyph glyph-name="multiply" unicode="&#xd7;" horiz-adv-x="349" 
d="M47 183c-14 12 -15 32 -3 45c23 26 57 62 92 99c-47 49 -87 90 -87 91c-12 12 -12 32 1 45c6 6 14 9 22 9s17 -4 23 -10c1 -1 39 -41 85 -89c49 52 90 95 91 96c7 7 15 10 23 10s16 -3 22 -9c13 -12 14 -33 1 -45c0 -1 -43 -45 -93 -98c33 -34 66 -67 89 -89
c12 -13 12 -33 0 -46c-7 -7 -16 -10 -26 -9c-7 1 -14 4 -19 9c-23 22 -55 55 -88 89c-33 -36 -66 -71 -88 -95c-7 -8 -17 -12 -27 -11c-7 1 -13 3 -18 8z" />
    <glyph glyph-name="divide" unicode="&#xf7;" horiz-adv-x="532" 
d="M25 336c-4 17 6 34 23 36c14 2 257 43 425 39c17 0 33 -15 34 -33c2 -18 -11 -32 -29 -31c-163 3 -411 -39 -414 -40h-8c-14 2 -28 13 -31 29zM202 200c0 31 25 56 55 56c31 0 56 -25 56 -56s-25 -56 -56 -56c-30 0 -55 25 -55 56zM257 459c-30 0 -55 25 -55 55
c0 31 25 56 55 56c31 0 56 -25 56 -56c0 -30 -25 -55 -56 -55z" />
    <glyph glyph-name="exclamdown" unicode="&#xa1;" horiz-adv-x="260" 
d="M17 4c-14 8 -18 26 -10 39c2 2 153 256 157 481c0 15 13 27 28 27c16 0 28 -13 28 -28c-3 -240 -158 -498 -164 -509c-6 -9 -15 -14 -25 -14c-5 0 -10 1 -14 4zM206 622c-21 0 -38 18 -38 40c0 21 18 38 39 38c22 0 39 -18 39 -40c0 -21 -18 -38 -40 -38z" />
    <glyph glyph-name="questiondown" unicode="&#xbf;" horiz-adv-x="373" 
d="M12 159c-1 15 -1 141 149 208c113 50 78 169 76 174c-5 16 4 33 20 38s33 -4 38 -20c19 -60 20 -190 -110 -247c-118 -53 -113 -149 -112 -150c0 -56 42 -101 99 -101c55 0 99 44 99 99c0 17 14 30 31 30c16 0 30 -13 30 -30c0 -88 -72 -160 -160 -160s-159 71 -160 159z
M263 611c-24 0 -44 20 -44 44c0 25 20 45 44 45c25 0 45 -20 45 -45c0 -24 -20 -44 -45 -44z" />
    <glyph glyph-name="asciitilde" unicode="~" horiz-adv-x="368" 
d="M60 270c-7 10 -7 27 1 37c12 17 37 37 68 37c20 0 43 -9 67 -35c14 -16 28 -21 41 -21c33 0 58 38 59 40c4 6 9 9 14 9s9 -2 12 -6c8 -10 9 -27 2 -38c-17 -25 -50 -58 -88 -58c-20 0 -42 9 -63 32c-17 18 -32 25 -45 25c-24 0 -40 -22 -41 -23c-4 -5 -9 -7 -14 -7
s-9 2 -13 8z" />
    <glyph glyph-name="guilsinglleft" unicode="&#x2039;" horiz-adv-x="357" 
d="M4 313c0 9 3 18 10 25l231 209c6 6 14 8 21 8c9 0 18 -3 24 -10c12 -13 11 -33 -2 -44l-202 -183l231 -163c14 -10 18 -30 8 -44c-6 -9 -16 -14 -26 -14c-6 0 -13 2 -18 6l-264 186c-7 5 -12 14 -13 24z" />
    <glyph glyph-name="guilsinglright" unicode="&#x203a;" horiz-adv-x="357" 
d="M14 111c-10 14 -7 34 7 44l231 163l-202 183c-13 11 -13 31 -2 44c6 7 15 10 24 10c7 0 15 -2 21 -8l231 -209c7 -7 11 -16 10 -25c0 -10 -5 -19 -13 -24l-263 -186c-6 -4 -12 -6 -19 -6c-10 0 -19 5 -25 14z" />
    <glyph glyph-name="guillemotleft" unicode="&#xab;" horiz-adv-x="357" 
d="M13 319c0 6 2 11 6 15l135 122c7 7 19 6 26 -1c6 -8 6 -20 -2 -26l-117 -107l134 -95c9 -6 11 -17 5 -25c-4 -6 -9 -8 -15 -8c-4 0 -8 1 -11 3l-153 108c-5 3 -8 9 -8 14zM153 319c0 6 2 11 6 15l135 122c7 7 19 6 26 -1c6 -8 6 -20 -2 -26l-117 -107l134 -95
c9 -6 11 -17 5 -25c-4 -6 -9 -8 -15 -8c-4 0 -8 1 -11 3l-153 108c-5 3 -8 9 -8 14z" />
    <glyph glyph-name="guillemotright" unicode="&#xbb;" horiz-adv-x="357" 
d="M19 202c-6 8 -4 19 4 25l135 95l-118 107c-8 6 -8 18 -1 26c7 7 18 8 26 1l134 -122c4 -4 7 -9 6 -15c0 -5 -3 -11 -7 -14l-154 -108c-3 -2 -7 -3 -10 -3c-6 0 -12 2 -15 8zM159 202c-6 8 -4 19 4 25l135 95l-118 107c-8 6 -8 18 -1 26c7 7 18 8 26 1l134 -122
c4 -4 7 -9 6 -15c0 -5 -3 -11 -7 -14l-154 -108c-3 -2 -7 -3 -10 -3c-6 0 -12 2 -15 8z" />
    <glyph glyph-name="guilsinglleft.1" horiz-adv-x="357" 
 />
    <glyph glyph-name="hungarumlaut" unicode="&#x2dd;" horiz-adv-x="417" 
d="M251 474c-17 0 -30 14 -30 30c1 59 51 166 56 179c7 15 26 21 41 14s22 -25 14 -40c-19 -41 -50 -119 -50 -153c0 -17 -14 -30 -31 -30zM138 474c-17 0 -30 14 -30 30c1 59 51 166 56 179c7 15 26 21 41 14s22 -25 14 -40c-19 -41 -50 -119 -50 -153
c0 -17 -14 -30 -31 -30z" />
    <glyph glyph-name="ring" unicode="&#x2da;" horiz-adv-x="512" 
d="M268 473c-7 31 30 64 41 74c6 4 13 2 17 -5c1 -1 2 -3 2 -5c7 6 14 8 21 8s14 -2 21 -8c15 -12 23 -37 18 -58c-9 -32 -36 -38 -66 -38c-21 2 -49 6 -54 32zM317 516c-15 -14 -26 -29 -25 -35c0 0 4 -7 31 -9c27 -1 39 8 41 17c2 7 -1 17 -8 22c-6 5 -12 4 -19 -4
c-5 -6 -13 -5 -17 1c-2 2 -3 5 -3 8z" />
    <glyph glyph-name="caron" unicode="&#x2c7;" horiz-adv-x="490" 
d="M245 513c-7 9 -5 21 3 27c4 3 8 4 12 4c6 0 11 -3 15 -8l39 -50l32 52c3 6 9 9 16 9c3 0 7 -1 10 -3c9 -6 12 -18 7 -27l-47 -76c-4 -5 -10 -8 -16 -9h-1c-6 0 -12 3 -15 8z" />
    <glyph glyph-name="grave" unicode="`" horiz-adv-x="313" 
d="M174 521c-4 10 0 21 10 25c9 5 20 1 25 -9c3 -7 34 -74 35 -111c0 -10 -8 -19 -19 -19s-19 9 -19 19c0 21 -20 70 -32 95z" />
    <glyph glyph-name="acute" unicode="&#xb4;" horiz-adv-x="313" 
d="M209 407c-11 0 -19 9 -19 19c1 37 32 104 35 111c5 10 16 14 25 9c10 -4 14 -15 9 -25c-12 -25 -31 -74 -31 -95c0 -10 -9 -19 -19 -19z" />
    <glyph glyph-name="cedilla" unicode="&#xb8;" horiz-adv-x="485" 
d="M206 -202c-2 4 -3 8 -2 13c2 10 11 16 21 14c34 -7 51 -8 58 -7c-6 10 -23 26 -40 39c-8 6 -9 18 -3 26s17 9 25 3c31 -24 67 -58 54 -84c-5 -13 -19 -20 -42 -20c-14 0 -65 3 -71 16z" />
    <glyph glyph-name="dieresis" unicode="&#xa8;" horiz-adv-x="492" 
d="M389 480c-19 0 -34 15 -34 34s15 34 34 34c18 0 34 -15 34 -34s-16 -34 -34 -34zM240 514c0 19 15 34 34 34s34 -15 34 -34s-15 -34 -34 -34s-34 15 -34 34z" />
    <glyph glyph-name="thorn" unicode="&#xfe;" horiz-adv-x="422" 
d="M28 385c-13 12 -13 32 -2 45c9 10 65 69 135 101c12 82 21 140 22 142c2 17 19 29 36 27c17 -3 29 -19 27 -37c-1 -1 -8 -46 -18 -113c13 2 25 2 37 0c48 -8 85 -40 110 -95c20 -44 20 -87 1 -128c-36 -74 -133 -122 -204 -149c-8 -60 -16 -113 -21 -150
c-2 -19 -17 -28 -35 -28c-18 3 -30 18 -28 36c4 31 10 72 16 119c-8 -2 -13 -3 -14 -4c-18 0 -34 4 -38 24c-5 17 6 34 23 38c10 3 24 7 40 12c10 73 22 153 33 225c-33 -22 -61 -49 -75 -63c-6 -7 -14 -10 -23 -10c-8 0 -16 2 -22 8zM183 251c56 25 114 60 135 104
c12 23 11 47 -1 73c-16 36 -36 55 -62 59c-12 2 -24 0 -37 -3c-11 -71 -23 -154 -35 -233z" />
    <glyph glyph-name="Thorn" unicode="&#xde;" horiz-adv-x="414" 
d="M36 383c-14 13 -15 34 -2 48c9 10 64 68 133 100c12 81 21 138 21 140c3 19 21 31 40 29c18 -3 31 -21 28 -40c0 -1 -7 -44 -16 -108c11 1 22 1 33 -1c34 -5 80 -26 112 -96c20 -44 20 -88 0 -129c-36 -74 -131 -122 -202 -149c-8 -59 -15 -110 -20 -147
c-2 -20 -19 -30 -38 -30c-19 3 -33 20 -30 39c3 29 9 69 15 114l-10 -3c-3 0 -6 -1 -8 -1c-16 0 -30 11 -34 27c-4 18 7 37 26 41c9 3 22 6 37 11c10 70 22 147 32 216c-29 -21 -55 -45 -68 -59c-7 -7 -16 -11 -26 -11c-8 0 -16 3 -23 9zM195 256c54 25 108 59 128 100
c11 23 11 45 -1 71c-16 34 -35 52 -59 56c-11 2 -23 1 -34 -2c-11 -69 -23 -149 -34 -225z" />
    <glyph glyph-name="germandbls" unicode="&#xdf;" horiz-adv-x="466" 
d="M78 147c-10 7 -12 22 -5 32c5 6 12 9 19 9c5 0 10 -1 14 -4c2 -2 5 -4 8 -6c18 114 57 218 81 275c-4 4 -7 9 -8 15c-2 12 7 24 20 26h6l2 5c6 11 19 16 31 10c6 -2 9 -7 11 -12c38 -1 81 -9 94 -41c14 -34 -13 -78 -86 -138c26 -8 55 -23 72 -48c11 -17 21 -46 5 -87
c-21 -55 -60 -90 -119 -90c-25 0 -49 6 -71 14c-2 -29 -3 -59 0 -87c1 -13 -9 -24 -22 -25c-14 0 -24 9 -25 21c-2 37 -1 75 2 112c-16 10 -27 18 -29 19zM189 296c-13 -43 -24 -92 -31 -141c21 -9 44 -16 66 -16c39 0 61 25 75 61c7 18 7 33 -1 44c-17 27 -70 36 -89 38
c-9 0 -17 6 -20 14zM244 450c-12 -27 -30 -72 -47 -126c118 88 111 115 111 115c-3 7 -30 12 -64 11z" />
    <glyph glyph-name="eth" unicode="&#xf0;" horiz-adv-x="355" 
d="M39 56c-26 71 24 205 159 277c-2 13 -5 25 -7 37l-35 -18c-3 -2 -6 -2 -10 -2c-7 0 -15 4 -19 11c-5 11 -1 24 9 29l45 24c-5 19 -9 37 -14 51c-3 11 3 23 15 27c11 3 23 -3 26 -15c2 -6 7 -22 12 -43l74 39c10 6 23 2 29 -9c5 -10 1 -23 -9 -29l-83 -44
c2 -12 5 -25 7 -39c2 0 3 1 4 1c12 5 24 -1 28 -12s-1 -24 -12 -28c-4 -1 -9 -3 -13 -5c17 -119 14 -261 -85 -297c-17 -6 -32 -8 -45 -8c-41 0 -66 25 -76 53zM204 288c-109 -65 -141 -172 -125 -217c6 -17 18 -25 36 -25c9 0 19 2 30 6c66 24 72 131 59 236z" />
    <glyph glyph-name="Agrave" unicode="&#xc0;" 
d="M26 -197c-8 6 -11 17 -5 26c29 45 71 124 115 212c-17 -10 -33 -19 -46 -27c-3 -2 -6 -3 -10 -3c-6 0 -12 3 -15 9c-6 9 -3 20 6 26c22 13 55 32 94 52c92 186 184 387 186 391c0 1 1 2 1 3l1 1c0 1 4 4 5 4c3 2 6 3 10 3h4c2 -1 3 -1 3 -2c1 0 2 -1 3 -2c1 0 1 0 3 -2
l1 -1c1 -1 1 -1 1 -2c1 -2 2 -2 2 -3v-2l1 -1v-8c-1 -4 -32 -144 -29 -284c80 36 154 66 192 71c10 1 19 -6 20 -16c2 -11 -5 -20 -16 -21c-34 -5 -111 -36 -194 -75c8 -112 0 -297 94 -320c10 -3 16 -13 13 -23c-2 -8 -9 -14 -18 -14c-1 0 -3 0 -4 1
c-109 27 -110 220 -121 340c-45 -22 -90 -44 -130 -65c-53 -107 -106 -208 -141 -263c-3 -5 -9 -8 -15 -8c-4 0 -7 1 -11 3zM327 351c-29 -63 -67 -143 -106 -224c32 16 65 33 99 49c-3 61 2 123 7 175zM307 721c-5 10 -1 21 9 25c9 5 20 1 25 -9c3 -7 34 -74 35 -111
c0 -10 -8 -19 -19 -19c-10 0 -19 9 -19 19c0 21 -19 70 -31 95z" />
    <glyph glyph-name="Aacute" unicode="&#xc1;" 
d="M26 -197c-8 6 -11 17 -5 26c29 45 71 124 115 212c-17 -10 -33 -19 -46 -27c-3 -2 -6 -3 -10 -3c-6 0 -12 3 -15 9c-6 9 -3 20 6 26c22 13 55 32 94 52c92 186 184 387 186 391c0 1 1 2 1 3l1 1c0 1 4 4 5 4c3 2 6 3 10 3h4c2 -1 3 -1 3 -2c1 0 2 -1 3 -2c1 0 1 0 3 -2
l1 -1c1 -1 1 -1 1 -2c1 -2 2 -2 2 -3v-2l1 -1v-8c-1 -4 -32 -144 -29 -284c80 36 154 66 192 71c10 1 19 -6 20 -16c2 -11 -5 -20 -16 -21c-34 -5 -111 -36 -194 -75c8 -112 0 -297 94 -320c10 -3 16 -13 13 -23c-2 -8 -9 -14 -18 -14c-1 0 -3 0 -4 1
c-109 27 -110 220 -121 340c-45 -22 -90 -44 -130 -65c-53 -107 -106 -208 -141 -263c-3 -5 -9 -8 -15 -8c-4 0 -7 1 -11 3zM221 127c32 16 65 33 99 49c-3 61 2 123 7 175c-29 -63 -67 -143 -106 -224zM345 607c-11 0 -19 9 -19 19c1 37 32 104 35 111c5 10 16 14 25 9
c10 -4 14 -15 10 -25c-12 -25 -32 -74 -32 -95c0 -10 -8 -19 -19 -19z" />
    <glyph glyph-name="circumflex" unicode="&#x2c6;" horiz-adv-x="490" 
d="M278 455c-7 5 -10 15 -5 22l39 63c3 4 7 7 13 8c5 0 10 -3 13 -7l46 -60c5 -7 3 -17 -4 -23c-7 -5 -17 -4 -22 3l-31 42l-27 -43c-5 -7 -15 -9 -22 -5z" />
    <glyph glyph-name="Acircumflex" unicode="&#xc2;" 
d="M26 -197c-8 6 -11 17 -5 26c29 45 71 124 115 212c-17 -10 -33 -19 -46 -27c-3 -2 -6 -3 -10 -3c-6 0 -12 3 -15 9c-6 9 -3 20 6 26c22 13 55 32 94 52c92 186 184 387 186 391c0 1 1 2 1 3l1 1c0 1 4 4 5 4c3 2 6 3 10 3h4c2 -1 3 -1 3 -2c1 0 2 -1 3 -2c1 0 1 0 3 -2
l1 -1c1 -1 1 -1 1 -2c1 -2 2 -2 2 -3v-2l1 -1v-8c-1 -4 -32 -144 -29 -284c80 36 154 66 192 71c10 1 19 -6 20 -16c2 -11 -5 -20 -16 -21c-34 -5 -111 -36 -194 -75c8 -112 0 -297 94 -320c10 -3 16 -13 13 -23c-2 -8 -9 -14 -18 -14c-1 0 -3 0 -4 1
c-109 27 -110 220 -121 340c-45 -22 -90 -44 -130 -65c-53 -107 -106 -208 -141 -263c-3 -5 -9 -8 -15 -8c-4 0 -7 1 -11 3zM327 351c-29 -63 -67 -143 -106 -224c32 16 65 33 99 49c-3 61 2 123 7 175zM324 655c-8 5 -10 15 -5 22l39 63c2 4 7 7 12 8h1c5 0 10 -3 13 -7
l45 -60c6 -7 4 -17 -3 -23c-7 -5 -17 -4 -22 3l-32 42l-26 -43c-5 -7 -15 -9 -22 -5z" />
    <glyph glyph-name="Atilde" unicode="&#xc3;" 
d="M26 -197c-8 6 -11 17 -5 26c29 45 71 124 115 212c-17 -10 -33 -19 -46 -27c-3 -2 -6 -3 -10 -3c-6 0 -12 3 -15 9c-6 9 -3 20 6 26c22 13 55 32 94 52c92 186 184 387 186 391c0 1 1 2 1 3l1 1c0 1 4 4 5 4c3 2 6 3 10 3h4c2 -1 3 -1 3 -2c1 0 2 -1 3 -2c1 0 1 0 3 -2
l1 -1c1 -1 1 -1 1 -2c1 -2 2 -2 2 -3v-2l1 -1v-8c-1 -4 -32 -144 -29 -284c80 36 154 66 192 71c10 1 19 -6 20 -16c2 -11 -5 -20 -16 -21c-34 -5 -111 -36 -194 -75c8 -112 0 -297 94 -320c10 -3 16 -13 13 -23c-2 -8 -9 -14 -18 -14c-1 0 -3 0 -4 1
c-109 27 -110 220 -121 340c-45 -22 -90 -44 -130 -65c-53 -107 -106 -208 -141 -263c-3 -5 -9 -8 -15 -8c-4 0 -7 1 -11 3zM221 127c32 16 65 33 99 49c-3 61 2 123 7 175c-29 -63 -67 -143 -106 -224zM294 697c-5 7 -5 18 0 25c8 12 25 25 45 25c14 0 30 -6 46 -24
c9 -10 18 -14 27 -14c22 0 39 27 40 28c5 7 13 8 18 1c5 -6 6 -18 1 -25c-11 -17 -33 -39 -59 -39c-14 0 -28 6 -42 22c-11 12 -21 16 -30 16c-16 0 -27 -14 -28 -15c-5 -7 -13 -7 -18 0z" />
    <glyph glyph-name="Adieresis" unicode="&#xc4;" 
d="M26 -197c-8 6 -11 17 -5 26c29 45 71 124 115 212c-17 -10 -33 -19 -46 -27c-3 -2 -6 -3 -10 -3c-6 0 -12 3 -15 9c-6 9 -3 20 6 26c22 13 55 32 94 52c92 186 184 387 186 391c0 1 1 2 1 3l1 1c0 1 4 4 5 4c3 2 6 3 10 3h4c2 -1 3 -1 3 -2c1 0 2 -1 3 -2c1 0 1 0 3 -2
l1 -1c1 -1 1 -1 1 -2c1 -2 2 -2 2 -3v-2l1 -1v-8c-1 -4 -32 -144 -29 -284c80 36 154 66 192 71c10 1 19 -6 20 -16c2 -11 -5 -20 -16 -21c-34 -5 -111 -36 -194 -75c8 -112 0 -297 94 -320c10 -3 16 -13 13 -23c-2 -8 -9 -14 -18 -14c-1 0 -3 0 -4 1
c-109 27 -110 220 -121 340c-45 -22 -90 -44 -130 -65c-53 -107 -106 -208 -141 -263c-3 -5 -9 -8 -15 -8c-4 0 -7 1 -11 3zM327 351c-29 -63 -67 -143 -106 -224c32 16 65 33 99 49c-3 61 2 123 7 175zM406 714c0 19 15 34 34 34s34 -15 34 -34s-15 -34 -34 -34
s-34 15 -34 34zM292 714c0 19 15 34 34 34s34 -15 34 -34s-15 -34 -34 -34s-34 15 -34 34z" />
    <glyph glyph-name="Aring" unicode="&#xc5;" 
d="M26 -197c-8 6 -11 17 -5 26c29 45 71 124 115 212c-17 -10 -33 -19 -46 -27c-3 -2 -6 -3 -10 -3c-6 0 -12 3 -15 9c-6 9 -3 20 6 26c22 13 55 32 94 52c92 186 184 387 186 391c0 1 1 2 1 3l1 1c0 1 4 4 5 4c3 2 6 3 10 3h4c2 -1 3 -1 3 -2c1 0 2 -1 3 -2c1 0 1 0 3 -2
l1 -1c1 -1 1 -1 1 -2c1 -2 2 -2 2 -3v-2l1 -1v-8c-1 -4 -32 -144 -29 -284c80 36 154 66 192 71c10 1 19 -6 20 -16c2 -11 -5 -20 -16 -21c-34 -5 -111 -36 -194 -75c8 -112 0 -297 94 -320c10 -3 16 -13 13 -23c-2 -8 -9 -14 -18 -14c-1 0 -3 0 -4 1
c-109 27 -110 220 -121 340c-45 -22 -90 -44 -130 -65c-53 -107 -106 -208 -141 -263c-3 -5 -9 -8 -15 -8c-4 0 -7 1 -11 3zM308 673c-7 31 30 64 41 74c6 4 14 2 18 -5c0 -1 1 -3 1 -5c7 6 14 8 21 8s15 -2 21 -8c16 -12 24 -37 18 -58c-7 -32 -37 -38 -65 -38
c-21 2 -50 6 -55 32zM221 127c32 16 65 33 99 49c-3 61 2 123 7 175c-29 -63 -67 -143 -106 -224zM357 716c-15 -14 -26 -29 -25 -35c0 0 5 -7 32 -9c26 -1 38 8 41 17c1 7 -2 17 -8 22s-13 4 -20 -4c-5 -6 -12 -5 -17 1c-2 2 -3 5 -3 8z" />
    <glyph glyph-name="AE" unicode="&#xc6;" horiz-adv-x="938" 
d="M87 -68c-9 11 -8 27 3 36c4 3 372 316 439 498c2 5 6 9 10 12l1 9c2 14 15 24 28 22c6 -1 11 -4 15 -8l188 16c14 1 26 -9 27 -23s-9 -26 -23 -27l-189 -16c-5 -48 -12 -115 -16 -185c53 6 105 10 146 13c22 2 41 3 55 5c14 1 26 -9 27 -23c2 -14 -9 -26 -22 -28
c-15 -1 -34 -3 -56 -4c-41 -3 -97 -7 -152 -14c-3 -80 -2 -156 10 -204c83 66 164 98 242 93c14 -1 25 -13 24 -27s-12 -25 -27 -24c-74 4 -151 -30 -235 -104c-5 -5 -11 -7 -17 -7c-7 0 -14 3 -19 9c-3 3 -4 8 -5 12c-23 49 -28 147 -25 245c-61 -10 -117 -25 -147 -46
c-117 -123 -238 -226 -246 -233c-5 -4 -11 -6 -17 -6c-7 0 -14 3 -19 9zM525 352c-23 -35 -52 -71 -82 -108c24 6 49 11 76 15c1 33 4 64 6 93z" />
    <glyph glyph-name="Ccedilla" unicode="&#xc7;" horiz-adv-x="553" 
d="M46 45c-5 80 18 168 67 248c70 115 184 195 290 205c71 6 142 -34 171 -101c14 -32 14 -59 -1 -79s-43 -30 -86 -30c-16 0 -33 1 -52 4c-10 1 -18 10 -16 21c1 10 10 18 21 16c77 -9 97 5 102 12c8 10 2 27 -4 41c-22 51 -76 83 -133 78c-92 -9 -195 -82 -260 -187
c-45 -73 -66 -152 -61 -226c5 -71 33 -126 82 -156c25 -15 55 -21 88 -20c0 4 1 8 4 12c6 8 17 9 25 3c4 -3 9 -7 13 -10c97 19 205 90 265 188c4 6 10 9 17 9c3 0 7 -1 10 -3c9 -5 12 -17 6 -26c-58 -95 -169 -172 -266 -201c10 -14 15 -29 10 -41c-6 -13 -20 -20 -43 -20
c-13 0 -65 3 -71 16c-2 4 -3 8 -2 13c2 10 11 16 21 14c34 -7 51 -8 59 -7c-3 4 -8 10 -13 15c-13 -2 -26 -3 -38 -3c-124 0 -197 96 -205 215z" />
    <glyph glyph-name="Eth" unicode="&#xd0;" horiz-adv-x="588" 
d="M-26 140c-9 6 -14 17 -10 27c2 2 77 151 217 196c7 55 12 91 12 92c1 11 12 17 23 14c10 -3 19 -14 17 -24c-1 -5 -3 -32 -9 -73c50 7 107 0 171 -30c115 -54 175 -169 151 -289c-23 -121 -133 -229 -325 -229c-29 0 -61 2 -94 8c-8 -31 -18 -60 -27 -82
c-3 -7 -8 -10 -16 -10c-3 0 -6 1 -10 3c-10 6 -15 17 -12 27c9 19 16 43 24 69c-4 1 -6 1 -9 2c-11 3 -19 14 -19 24c1 11 11 18 22 15c5 -1 10 -2 16 -3c19 78 37 173 52 264c-19 -1 -36 -1 -49 -1c-19 0 -31 1 -31 1c-9 0 -17 15 -17 32c1 18 8 31 18 31c0 0 39 -1 90 1
c6 40 11 77 16 111c-113 -48 -173 -169 -173 -171c-3 -6 -9 -9 -15 -9c-4 0 -9 1 -13 4zM201 209c16 1 33 3 50 6c9 2 18 -11 19 -29c0 -17 -6 -33 -16 -34c-21 -4 -43 -6 -64 -8c-15 -93 -33 -192 -53 -275c27 -4 53 -6 77 -6c173 0 272 96 292 204
c20 102 -27 196 -122 240c-42 20 -80 28 -115 28c-18 0 -35 -2 -51 -6c-5 -35 -11 -76 -17 -120z" />
    <glyph glyph-name="Egrave" unicode="&#xc8;" horiz-adv-x="549" 
d="M37 85c-6 9 -3 21 6 27c28 17 56 32 82 47c51 153 113 298 117 309c4 10 16 15 26 11c3 -2 7 -5 9 -8l251 29c10 1 20 -7 21 -17c1 -11 -6 -20 -17 -22l-264 -30c-25 -61 -60 -152 -93 -247c90 45 170 71 241 80c10 2 20 -6 22 -16c1 -11 -6 -21 -17 -22
c-76 -10 -163 -41 -264 -94c-36 -110 -65 -217 -65 -277c134 92 249 135 349 134c10 0 19 -9 19 -20s-9 -19 -20 -19h-5c-96 0 -213 -49 -348 -146c-4 -3 -8 -4 -12 -4c-6 0 -12 3 -15 8c-4 5 -5 11 -3 16c-11 55 15 166 51 281c-15 -9 -30 -17 -45 -26c-3 -2 -6 -3 -10 -3
c-6 0 -13 3 -16 9zM290 721c-4 10 0 21 9 25c10 5 21 1 25 -9c4 -7 35 -74 35 -111c0 -10 -8 -19 -19 -19c-10 0 -18 9 -19 19c0 21 -19 70 -31 95z" />
    <glyph glyph-name="Eacute" unicode="&#xc9;" horiz-adv-x="549" 
d="M37 85c-6 9 -3 21 6 27c28 17 56 32 82 47c51 153 113 298 117 309c4 10 16 15 26 11c3 -2 7 -5 9 -8l251 29c10 1 20 -7 21 -17c1 -11 -6 -20 -17 -22l-264 -30c-25 -61 -60 -152 -93 -247c90 45 170 71 241 80c10 2 20 -6 22 -16c1 -11 -6 -21 -17 -22
c-76 -10 -163 -41 -264 -94c-36 -110 -65 -217 -65 -277c134 92 249 135 349 134c10 0 19 -9 19 -20s-9 -19 -20 -19h-5c-96 0 -213 -49 -348 -146c-4 -3 -8 -4 -12 -4c-6 0 -12 3 -15 8c-4 5 -5 11 -3 16c-11 55 15 166 51 281c-15 -9 -30 -17 -45 -26c-3 -2 -6 -3 -10 -3
c-6 0 -13 3 -16 9zM328 607c-10 0 -18 9 -18 19c0 37 31 104 35 111c4 10 15 14 25 9c9 -4 13 -15 9 -25c-12 -25 -31 -74 -31 -95c-1 -10 -9 -19 -20 -19z" />
    <glyph glyph-name="Ecircumflex" unicode="&#xca;" horiz-adv-x="549" 
d="M37 85c-6 9 -3 21 6 27c28 17 56 32 82 47c51 153 113 298 117 309c4 10 16 15 26 11c3 -2 7 -5 9 -8l251 29c10 1 20 -7 21 -17c1 -11 -6 -20 -17 -22l-264 -30c-25 -61 -60 -152 -93 -247c90 45 170 71 241 80c10 2 20 -6 22 -16c1 -11 -6 -21 -17 -22
c-76 -10 -163 -41 -264 -94c-36 -110 -65 -217 -65 -277c134 92 249 135 349 134c10 0 19 -9 19 -20s-9 -19 -20 -19h-5c-96 0 -213 -49 -348 -146c-4 -3 -8 -4 -12 -4c-6 0 -12 3 -15 8c-4 5 -5 11 -3 16c-11 55 15 166 51 281c-15 -9 -30 -17 -45 -26c-3 -2 -6 -3 -10 -3
c-6 0 -13 3 -16 9zM307 655c-7 5 -9 15 -5 22l39 63c3 4 8 7 13 8h1c5 0 9 -3 12 -7l46 -60c5 -7 4 -17 -3 -23c-7 -5 -17 -4 -23 3l-31 42l-27 -43c-4 -7 -14 -9 -22 -5z" />
    <glyph glyph-name="Edieresis" unicode="&#xcb;" horiz-adv-x="549" 
d="M37 85c-6 9 -3 21 6 27c28 17 56 32 82 47c51 153 113 298 117 309c4 10 16 15 26 11c3 -2 7 -5 9 -8l251 29c10 1 20 -7 21 -17c1 -11 -6 -20 -17 -22l-264 -30c-25 -61 -60 -152 -93 -247c90 45 170 71 241 80c10 2 20 -6 22 -16c1 -11 -6 -21 -17 -22
c-76 -10 -163 -41 -264 -94c-36 -110 -65 -217 -65 -277c134 92 249 135 349 134c10 0 19 -9 19 -20s-9 -19 -20 -19h-5c-96 0 -213 -49 -348 -146c-4 -3 -8 -4 -12 -4c-6 0 -12 3 -15 8c-4 5 -5 11 -3 16c-11 55 15 166 51 281c-15 -9 -30 -17 -45 -26c-3 -2 -6 -3 -10 -3
c-6 0 -13 3 -16 9zM390 714c0 19 15 34 34 34c18 0 34 -15 34 -34s-16 -34 -34 -34c-19 0 -34 15 -34 34zM309 680c-19 0 -34 15 -34 34s15 34 34 34s34 -15 34 -34s-15 -34 -34 -34z" />
    <glyph glyph-name="Dcroat" unicode="&#x110;" horiz-adv-x="588" 
d="M-26 140c-9 6 -14 17 -10 27c2 2 77 151 217 196c7 55 12 91 12 92c1 11 12 17 23 14c10 -3 19 -14 17 -24c-1 -5 -3 -32 -9 -73c50 7 107 0 171 -30c115 -54 175 -169 151 -289c-23 -121 -133 -229 -325 -229c-29 0 -61 2 -94 8c-8 -31 -18 -60 -27 -82
c-3 -7 -8 -10 -16 -10c-3 0 -6 1 -10 3c-10 6 -15 17 -12 27c9 19 16 43 24 69c-4 1 -6 1 -9 2c-11 3 -19 14 -19 24c1 11 11 18 22 15c5 -1 10 -2 16 -3c19 78 37 173 52 264c-19 -1 -36 -1 -49 -1c-19 0 -31 1 -31 1c-9 0 -17 15 -17 32c1 18 8 31 18 31c0 0 39 -1 90 1
c6 40 11 77 16 111c-113 -48 -173 -169 -173 -171c-3 -6 -9 -9 -15 -9c-4 0 -9 1 -13 4zM201 209c16 1 33 3 50 6c9 2 18 -11 19 -29c0 -17 -6 -33 -16 -34c-21 -4 -43 -6 -64 -8c-15 -93 -33 -192 -53 -275c27 -4 53 -6 77 -6c173 0 272 96 292 204
c20 102 -27 196 -122 240c-42 20 -80 28 -115 28c-18 0 -35 -2 -51 -6c-5 -35 -11 -76 -17 -120z" />
    <glyph glyph-name="Igrave" unicode="&#xcc;" horiz-adv-x="197" 
d="M36 -185c-16 111 91 449 141 599l31 80c6 6 16 8 23 4c7 -5 10 -14 7 -22c-2 -5 -184 -520 -165 -653c1 -10 -5 -20 -15 -23h-4c-9 0 -17 6 -18 15zM114 721c-4 10 0 21 9 25c10 5 21 1 25 -9c4 -7 35 -74 35 -111c0 -10 -8 -19 -19 -19c-10 0 -18 9 -19 19
c0 21 -19 70 -31 95z" />
    <glyph glyph-name="Iacute" unicode="&#xcd;" horiz-adv-x="197" 
d="M36 -185c-16 111 91 449 141 599l31 80c6 6 16 8 23 4c7 -5 10 -14 7 -22c-2 -5 -184 -520 -165 -653c1 -10 -5 -20 -15 -23h-4c-9 0 -17 6 -18 15zM152 607c-10 0 -18 9 -18 19c0 37 31 104 35 111c4 10 15 14 25 9c9 -4 13 -15 9 -25c-12 -25 -31 -74 -31 -95
c-1 -10 -9 -19 -20 -19z" />
    <glyph glyph-name="Icircumflex" unicode="&#xce;" horiz-adv-x="197" 
d="M36 -185c-16 111 91 449 141 599l31 80c6 6 16 8 23 4c7 -5 10 -14 7 -22c-2 -5 -184 -520 -165 -653c1 -10 -5 -20 -15 -23h-4c-9 0 -17 6 -18 15zM131 655c-7 5 -9 15 -5 22l39 63c3 4 8 7 13 8h1c5 0 9 -3 12 -7l46 -60c5 -7 4 -17 -3 -23c-7 -5 -17 -4 -23 3l-31 42
l-27 -43c-4 -7 -14 -9 -22 -5z" />
    <glyph glyph-name="Idieresis" unicode="&#xcf;" horiz-adv-x="197" 
d="M36 -185c-16 111 91 449 141 599l31 80c6 6 16 8 23 4c7 -5 10 -14 7 -22c-2 -5 -184 -520 -165 -653c1 -10 -5 -20 -15 -23h-4c-9 0 -17 6 -18 15zM214 714c0 19 15 34 34 34c18 0 34 -15 34 -34s-16 -34 -34 -34c-19 0 -34 15 -34 34zM133 680c-19 0 -34 15 -34 34
s15 34 34 34s34 -15 34 -34s-15 -34 -34 -34z" />
    <glyph glyph-name="Lslash" unicode="&#x141;" horiz-adv-x="454" 
d="M18 179c-8 12 -6 28 6 36c3 2 42 30 96 64c16 106 31 199 31 201c2 14 15 23 29 21s24 -15 21 -29c0 -2 -11 -72 -24 -160c33 19 69 38 104 54c13 6 28 0 34 -13c6 -12 0 -27 -13 -33c-46 -21 -94 -48 -135 -73c-12 -79 -24 -162 -32 -217c36 -1 128 19 260 207
c5 7 13 11 21 11c5 0 10 -2 15 -5c11 -8 14 -24 6 -35c-138 -196 -243 -230 -298 -230c-24 0 -39 6 -43 8c-10 5 -16 16 -14 27c6 45 17 121 28 199c-34 -22 -56 -38 -56 -38c-5 -4 -10 -5 -15 -5c-8 0 -16 4 -21 10z" />
    <glyph glyph-name="Ntilde" unicode="&#xd1;" horiz-adv-x="709" 
d="M18 -207c-9 6 -12 18 -6 27c121 187 282 652 283 657c4 10 15 16 26 12c10 -4 15 -15 12 -25c-3 -6 -21 -59 -49 -134c9 -38 135 -222 273 -410c9 178 108 529 113 546c3 11 14 17 25 14c10 -3 16 -14 13 -24c-1 -5 -130 -462 -110 -591c11 -15 22 -29 33 -44
c6 -8 4 -21 -4 -27c-4 -3 -8 -4 -12 -4c-6 0 -12 3 -16 8c-7 9 -18 23 -31 41c-3 2 -5 5 -6 9c-81 108 -240 326 -297 431c-59 -154 -145 -365 -220 -480c-4 -6 -10 -9 -16 -9c-4 0 -8 1 -11 3zM477 607c-5 7 -5 18 0 25c9 12 25 25 46 25c14 0 30 -6 46 -24
c9 -10 18 -14 27 -14c22 0 39 27 40 28c4 7 12 8 17 1c6 -6 6 -18 1 -25c-11 -17 -33 -39 -59 -39c-13 0 -28 6 -42 22c-11 12 -21 16 -30 16c-16 0 -27 -14 -28 -15c-5 -7 -13 -7 -18 0z" />
    <glyph glyph-name="Ograve" unicode="&#xd2;" horiz-adv-x="653" 
d="M76 -24c-23 81 -16 174 17 263c46 124 159 259 303 259c23 0 46 -4 68 -12c10 -4 15 -15 12 -26c-4 -10 -16 -15 -26 -11c-18 6 -37 10 -56 10c-126 0 -225 -126 -264 -234c-30 -81 -36 -166 -16 -238c23 -83 81 -150 171 -150c127 0 223 127 264 234
c25 70 34 145 22 211c-10 54 -51 99 -107 99c-60 0 -129 -52 -201 -153c-4 -5 -9 -8 -15 -8c-4 0 -8 1 -12 4c-9 6 -11 18 -5 27c94 131 173 169 233 169c75 0 133 -59 146 -131c13 -73 4 -155 -24 -232c-46 -123 -159 -259 -302 -259c-107 0 -181 78 -208 178zM342 721
c-4 10 0 21 9 25c10 5 21 1 25 -9c4 -7 35 -74 35 -111c0 -10 -8 -19 -19 -19c-10 0 -18 9 -19 19c0 21 -19 70 -31 95z" />
    <glyph glyph-name="Oacute" unicode="&#xd3;" horiz-adv-x="653" 
d="M76 -24c-23 81 -16 174 17 263c46 124 159 259 303 259c23 0 46 -4 68 -12c10 -4 15 -15 12 -26c-4 -10 -16 -15 -26 -11c-18 6 -37 10 -56 10c-126 0 -225 -126 -264 -234c-30 -81 -36 -166 -16 -238c23 -83 81 -150 171 -150c127 0 223 127 264 234
c25 70 34 145 22 211c-10 54 -51 99 -107 99c-60 0 -129 -52 -201 -153c-4 -5 -9 -8 -15 -8c-4 0 -8 1 -12 4c-9 6 -11 18 -5 27c94 131 173 169 233 169c75 0 133 -59 146 -131c13 -73 4 -155 -24 -232c-46 -123 -159 -259 -302 -259c-107 0 -181 78 -208 178zM380 607
c-10 0 -18 9 -18 19c0 37 31 104 35 111c4 10 15 14 25 9c9 -4 13 -15 9 -25c-12 -25 -31 -74 -31 -95c-1 -10 -9 -19 -20 -19z" />
    <glyph glyph-name="Ocircumflex" unicode="&#xd4;" horiz-adv-x="653" 
d="M76 -24c-23 81 -16 174 17 263c46 124 159 259 303 259c23 0 46 -4 68 -12c10 -4 15 -15 12 -26c-4 -10 -16 -15 -26 -11c-18 6 -37 10 -56 10c-126 0 -225 -126 -264 -234c-30 -81 -36 -166 -16 -238c23 -83 81 -150 171 -150c127 0 223 127 264 234
c25 70 34 145 22 211c-10 54 -51 99 -107 99c-60 0 -129 -52 -201 -153c-4 -5 -9 -8 -15 -8c-4 0 -8 1 -12 4c-9 6 -11 18 -5 27c94 131 173 169 233 169c75 0 133 -59 146 -131c13 -73 4 -155 -24 -232c-46 -123 -159 -259 -302 -259c-107 0 -181 78 -208 178zM359 655
c-7 5 -9 15 -5 22l39 63c3 4 8 7 13 8h1c5 0 9 -3 12 -7l46 -60c5 -7 4 -17 -3 -23c-7 -5 -17 -4 -23 3l-31 42l-27 -43c-4 -7 -14 -9 -22 -5z" />
    <glyph glyph-name="Otilde" unicode="&#xd5;" horiz-adv-x="653" 
d="M76 -24c-23 81 -16 174 17 263c46 124 159 259 303 259c23 0 46 -4 68 -12c10 -4 15 -15 12 -26c-4 -10 -16 -15 -26 -11c-18 6 -37 10 -56 10c-126 0 -225 -126 -264 -234c-30 -81 -36 -166 -16 -238c23 -83 81 -150 171 -150c127 0 223 127 264 234
c25 70 34 145 22 211c-10 54 -51 99 -107 99c-60 0 -129 -52 -201 -153c-4 -5 -9 -8 -15 -8c-4 0 -8 1 -12 4c-9 6 -11 18 -5 27c94 131 173 169 233 169c75 0 133 -59 146 -131c13 -73 4 -155 -24 -232c-46 -123 -159 -259 -302 -259c-107 0 -181 78 -208 178zM329 697
c-5 7 -5 18 0 25c9 12 25 25 46 25c14 0 30 -6 46 -24c9 -10 18 -14 27 -14c22 0 39 27 40 28c4 7 12 8 17 1c6 -6 6 -18 1 -25c-11 -17 -33 -39 -59 -39c-13 0 -28 6 -42 22c-11 12 -21 16 -30 16c-16 0 -27 -14 -28 -15c-5 -7 -13 -7 -18 0z" />
    <glyph glyph-name="Odieresis" unicode="&#xd6;" horiz-adv-x="653" 
d="M76 -24c-23 81 -16 174 17 263c46 124 159 259 303 259c23 0 46 -4 68 -12c10 -4 15 -15 12 -26c-4 -10 -16 -15 -26 -11c-18 6 -37 10 -56 10c-126 0 -225 -126 -264 -234c-30 -81 -36 -166 -16 -238c23 -83 81 -150 171 -150c127 0 223 127 264 234
c25 70 34 145 22 211c-10 54 -51 99 -107 99c-60 0 -129 -52 -201 -153c-4 -5 -9 -8 -15 -8c-4 0 -8 1 -12 4c-9 6 -11 18 -5 27c94 131 173 169 233 169c75 0 133 -59 146 -131c13 -73 4 -155 -24 -232c-46 -123 -159 -259 -302 -259c-107 0 -181 78 -208 178zM476 680
c-19 0 -34 15 -34 34s15 34 34 34c18 0 34 -15 34 -34s-16 -34 -34 -34zM327 714c0 19 15 34 34 34s34 -15 34 -34s-15 -34 -34 -34s-34 15 -34 34z" />
    <glyph glyph-name="Oslash" unicode="&#xd8;" horiz-adv-x="702" 
d="M27 -67c-8 10 -7 26 3 34c48 40 99 83 151 127c-25 61 -26 141 2 219c34 91 119 190 224 190c18 0 35 -3 52 -9c11 -3 17 -13 16 -24h1c34 -13 57 -41 71 -66l92 77c4 4 10 6 15 6c7 0 14 -3 19 -9c9 -10 7 -25 -3 -34c-1 -1 -41 -35 -103 -87c1 -5 2 -8 2 -9
c10 -54 4 -114 -17 -170c-42 -115 -135 -191 -224 -191c-51 0 -92 23 -123 64c-49 -42 -98 -83 -144 -121c-4 -4 -10 -6 -15 -6c-7 0 -14 3 -19 9zM229 297c-22 -61 -24 -122 -9 -170c106 89 211 178 289 244c-14 30 -36 57 -71 57c-22 0 -49 -11 -78 -33
c-4 -3 -10 -5 -15 -5c-7 0 -14 3 -19 10c-6 8 -6 18 -2 26c-41 -29 -75 -75 -95 -129zM242 82c21 -29 51 -46 87 -46c69 0 142 63 178 158c15 42 21 86 17 126c-79 -66 -180 -152 -282 -238z" />
    <glyph glyph-name="OE" unicode="&#x152;" horiz-adv-x="690" 
d="M55 86c-22 55 -26 121 -11 188c28 130 115 220 206 220c17 0 47 -1 49 -24c38 -9 64 -39 81 -65c3 33 6 57 7 65c2 14 15 24 29 22c5 -1 10 -3 14 -7l166 14c14 1 26 -9 28 -23c1 -14 -10 -26 -24 -27l-166 -14c-5 -43 -11 -103 -15 -165c19 2 48 6 79 9c32 4 67 8 98 11
c14 2 26 -8 27 -22c2 -14 -8 -26 -22 -28c-31 -3 -66 -7 -97 -11c-40 -5 -68 -8 -87 -10c-2 -66 -1 -129 8 -170c74 57 146 85 216 81c14 -1 24 -13 23 -27c0 -14 -12 -25 -26 -24c-66 4 -134 -26 -209 -93c-4 -4 -10 -6 -16 -6c-7 0 -14 3 -19 8c-3 4 -5 8 -6 12
c-11 24 -17 58 -20 99c-33 -63 -96 -123 -171 -123c-69 0 -118 48 -142 110zM93 263c-12 -57 -9 -113 9 -159c17 -42 44 -69 77 -76s69 6 102 38c35 34 61 84 74 141c10 49 9 100 -3 142c-6 16 -30 64 -65 72c-24 5 -53 -9 -85 -43c-5 -5 -11 -7 -18 -7c-6 0 -13 2 -18 7
c-5 4 -8 11 -8 17c-29 -32 -53 -79 -65 -132z" />
    <glyph glyph-name="Scaron" unicode="&#x160;" horiz-adv-x="626" 
d="M70 -173c-38 30 -41 60 -36 80c19 83 221 160 394 210c-127 74 -211 138 -215 206c-2 41 24 79 78 118c38 28 75 42 110 42c12 0 24 -1 36 -5c74 -22 107 -106 108 -110c4 -9 -1 -20 -11 -24c-9 -3 -20 1 -24 11c0 1 -27 70 -84 87c-8 2 -16 4 -25 4
c-27 0 -56 -12 -88 -35c-43 -31 -64 -59 -62 -86c3 -56 106 -123 206 -181c7 -4 14 -8 20 -13c95 27 174 44 195 48c10 3 20 -4 23 -14c2 -10 -5 -20 -15 -22c-52 -11 -112 -26 -173 -42c19 -26 23 -53 22 -74c-3 -76 -78 -163 -182 -211c-47 -22 -95 -33 -140 -33
c-51 0 -99 15 -137 44zM70 -102c-1 -5 -4 -20 23 -41c36 -28 76 -37 113 -37c53 0 100 18 126 30c90 42 157 117 160 178c1 24 -7 44 -25 62c-190 -55 -382 -129 -397 -192zM313 713c-7 9 -5 21 4 27c3 3 7 4 11 4c6 0 12 -3 16 -8l38 -50l32 52c6 9 17 12 26 6
c10 -6 12 -18 7 -27l-47 -76c-4 -5 -10 -8 -16 -9h-1c-6 0 -12 3 -15 8z" />
    <glyph glyph-name="Ugrave" unicode="&#xd9;" horiz-adv-x="617" 
d="M51 203c-9 6 -11 18 -4 27l199 272c6 8 17 10 25 5c9 -5 12 -15 8 -24c-63 -131 -213 -489 -155 -581c8 -12 20 -18 38 -18c153 0 323 402 375 557c3 10 14 16 24 13c10 -4 16 -14 13 -24c-1 -1 -43 -146 -72 -291c-56 -276 -15 -291 -14 -291c11 -3 16 -14 13 -24
c-2 -9 -10 -14 -18 -14c-2 0 -3 0 -5 1c-36 10 -70 58 -14 336c3 12 6 25 8 37c-77 -160 -190 -338 -310 -338c-31 0 -55 12 -70 36c-52 83 19 302 82 456l-96 -131c-4 -5 -10 -7 -16 -7c-4 0 -8 1 -11 3zM324 721c-4 10 0 21 9 25c10 5 21 1 25 -9c4 -7 35 -74 35 -111
c0 -10 -8 -19 -19 -19c-10 0 -18 9 -19 19c0 21 -19 70 -31 95z" />
    <glyph glyph-name="Uacute" unicode="&#xda;" horiz-adv-x="617" 
d="M51 203c-9 6 -11 18 -4 27l199 272c6 8 17 10 25 5c9 -5 12 -15 8 -24c-63 -131 -213 -489 -155 -581c8 -12 20 -18 38 -18c153 0 323 402 375 557c3 10 14 16 24 13c10 -4 16 -14 13 -24c-1 -1 -43 -146 -72 -291c-56 -276 -15 -291 -14 -291c11 -3 16 -14 13 -24
c-2 -9 -10 -14 -18 -14c-2 0 -3 0 -5 1c-36 10 -70 58 -14 336c3 12 6 25 8 37c-77 -160 -190 -338 -310 -338c-31 0 -55 12 -70 36c-52 83 19 302 82 456l-96 -131c-4 -5 -10 -7 -16 -7c-4 0 -8 1 -11 3zM362 607c-10 0 -18 9 -18 19c0 37 31 104 35 111c4 10 15 14 25 9
c9 -4 13 -15 9 -25c-12 -25 -31 -74 -31 -95c-1 -10 -9 -19 -20 -19z" />
    <glyph glyph-name="Ucircumflex" unicode="&#xdb;" horiz-adv-x="617" 
d="M51 203c-9 6 -11 18 -4 27l199 272c6 8 17 10 25 5c9 -5 12 -15 8 -24c-63 -131 -213 -489 -155 -581c8 -12 20 -18 38 -18c153 0 323 402 375 557c3 10 14 16 24 13c10 -4 16 -14 13 -24c-1 -1 -43 -146 -72 -291c-56 -276 -15 -291 -14 -291c11 -3 16 -14 13 -24
c-2 -9 -10 -14 -18 -14c-2 0 -3 0 -5 1c-36 10 -70 58 -14 336c3 12 6 25 8 37c-77 -160 -190 -338 -310 -338c-31 0 -55 12 -70 36c-52 83 19 302 82 456l-96 -131c-4 -5 -10 -7 -16 -7c-4 0 -8 1 -11 3zM341 655c-7 5 -9 15 -5 22l39 63c3 4 8 7 13 8h1c5 0 9 -3 12 -7
l46 -60c5 -7 4 -17 -3 -23c-7 -5 -17 -4 -23 3l-31 42l-27 -43c-4 -7 -14 -9 -22 -5z" />
    <glyph glyph-name="Udieresis" unicode="&#xdc;" horiz-adv-x="617" 
d="M51 203c-9 6 -11 18 -4 27l199 272c6 8 17 10 25 5c9 -5 12 -15 8 -24c-63 -131 -213 -489 -155 -581c8 -12 20 -18 38 -18c153 0 323 402 375 557c3 10 14 16 24 13c10 -4 16 -14 13 -24c-1 -1 -43 -146 -72 -291c-56 -276 -15 -291 -14 -291c11 -3 16 -14 13 -24
c-2 -9 -10 -14 -18 -14c-2 0 -3 0 -5 1c-36 10 -70 58 -14 336c3 12 6 25 8 37c-77 -160 -190 -338 -310 -338c-31 0 -55 12 -70 36c-52 83 19 302 82 456l-96 -131c-4 -5 -10 -7 -16 -7c-4 0 -8 1 -11 3zM458 680c-19 0 -34 15 -34 34s15 34 34 34c18 0 34 -15 34 -34
s-16 -34 -34 -34zM309 714c0 19 15 34 34 34s34 -15 34 -34s-15 -34 -34 -34s-34 15 -34 34z" />
    <glyph glyph-name="Ydieresis" unicode="&#x178;" horiz-adv-x="416" 
d="M101 188c-71 74 -18 253 -16 261s12 13 22 11s16 -11 13 -19c-14 -47 -40 -182 10 -235c14 -15 33 -22 59 -22c132 0 190 191 202 241c2 7 3 12 4 13v2c1 2 2 2 2 3h1c0 1 1 1 1 2h1l2 2h1c1 0 1 1 2 1h1c1 1 2 1 3 1h7c1 0 1 0 1 -1h2c1 0 1 0 2 -1h1c1 -1 1 -1 3 -2
l1 -1c1 -1 1 -1 2 -3l1 -1s0 -1 1 -1v-7c0 -2 -1 -6 -3 -13c-6 -29 -21 -112 -22 -242c27 13 56 13 85 24c9 4 20 1 24 -7c4 -7 1 -16 -9 -20c-35 -14 -69 -16 -100 -32c0 -11 0 -23 1 -35c4 -155 -55 -291 -144 -333c-20 -9 -40 -14 -61 -14c-24 0 -48 6 -73 19
c-39 20 -58 51 -55 89c6 89 126 203 295 291c0 46 2 86 4 121c-37 -65 -96 -126 -183 -126c-37 0 -67 11 -88 34zM109 -134c-2 -27 11 -48 39 -62c18 -9 35 -14 53 -14c14 0 29 4 43 10c76 36 129 165 125 306v17c-159 -86 -255 -189 -260 -257zM357 680
c-19 0 -34 15 -34 34s15 34 34 34s34 -15 34 -34s-15 -34 -34 -34zM243 680c-19 0 -34 15 -34 34s15 34 34 34s34 -15 34 -34s-15 -34 -34 -34z" />
    <glyph glyph-name="Yacute" unicode="&#xdd;" horiz-adv-x="416" 
d="M101 188c-71 74 -18 253 -16 261s12 13 22 11s16 -11 13 -19c-14 -47 -40 -182 10 -235c14 -15 33 -22 59 -22c132 0 190 191 202 241c2 7 3 12 4 13v2c1 2 2 2 2 3h1c0 1 1 1 1 2h1l2 2h1c1 0 1 1 2 1h1c1 1 2 1 3 1h7c1 0 1 0 1 -1h2c1 0 1 0 2 -1h1c1 -1 1 -1 3 -2
l1 -1c1 -1 1 -1 2 -3l1 -1s0 -1 1 -1v-7c0 -2 -1 -6 -3 -13c-6 -29 -21 -112 -22 -242c27 13 56 13 85 24c9 4 20 1 24 -7c4 -7 1 -16 -9 -20c-35 -14 -69 -16 -100 -32c0 -11 0 -23 1 -35c4 -155 -55 -291 -144 -333c-20 -9 -40 -14 -61 -14c-24 0 -48 6 -73 19
c-39 20 -58 51 -55 89c6 89 126 203 295 291c0 46 2 86 4 121c-37 -65 -96 -126 -183 -126c-37 0 -67 11 -88 34zM109 -134c-2 -27 11 -48 39 -62c18 -9 35 -14 53 -14c14 0 29 4 43 10c76 36 129 165 125 306v17c-159 -86 -255 -189 -260 -257zM262 607c-11 0 -19 9 -19 19
c1 37 32 104 35 111c5 10 16 14 25 9c10 -4 14 -15 10 -25c-12 -25 -32 -74 -32 -95c0 -10 -8 -19 -19 -19z" />
    <glyph glyph-name="Zcaron" unicode="&#x17d;" horiz-adv-x="570" 
d="M30 368c-5 10 -1 21 8 26c34 19 177 96 272 96c24 0 45 -5 60 -17c25 -20 31 -55 18 -104c-12 -43 -29 -89 -49 -138c74 40 145 70 196 77c10 1 20 -6 21 -17c2 -10 -6 -20 -16 -21c-55 -7 -141 -48 -227 -96c-60 -127 -134 -254 -176 -323l368 160c9 4 21 -1 25 -10
c4 -10 0 -21 -10 -25l-424 -184c-2 -1 -5 -2 -7 -2c-6 0 -11 2 -15 7c-5 6 -6 15 -1 22c1 3 99 156 181 321c-45 -26 -88 -52 -126 -75l-34 -21c-4 -2 -7 -3 -10 -3c-7 0 -13 3 -17 9c-5 9 -2 21 7 26l34 21c54 33 115 70 175 104c29 63 54 124 68 178c7 22 11 52 -5 64
c-8 6 -20 9 -35 9c-63 0 -177 -48 -255 -91c-9 -5 -20 -2 -26 7zM285 713c-7 9 -5 21 4 27c3 3 7 4 11 4c6 0 12 -3 16 -8l38 -50l32 52c6 9 17 12 26 6c10 -6 12 -18 7 -27l-47 -76c-4 -5 -10 -8 -16 -9h-1c-6 0 -12 3 -15 8z" />
    <glyph glyph-name="agrave" unicode="&#xe0;" horiz-adv-x="165" 
d="M14 16c-20 19 -26 50 -16 80c21 64 75 90 105 99c10 4 22 2 30 -5c9 -7 14 -18 12 -29c-4 -51 -15 -86 -27 -110c9 3 26 21 77 71c6 5 11 8 17 8c4 0 8 -1 11 -4c9 -7 6 -20 -1 -29c-48 -59 -77 -86 -104 -88c-9 0 -18 1 -26 7c-8 -6 -15 -10 -21 -12
c-6 -3 -13 -4 -19 -4c-14 0 -27 5 -38 16zM98 521c-4 10 0 21 9 25c10 5 21 1 25 -9c4 -7 35 -74 35 -111c0 -10 -8 -19 -19 -19c-10 0 -18 9 -19 19c0 21 -19 70 -31 95zM38 83c-6 -17 -2 -31 5 -37c6 -6 12 -4 14 -3c16 5 37 37 46 108c-23 -10 -53 -30 -65 -68z" />
    <glyph glyph-name="aacute" unicode="&#xe1;" horiz-adv-x="165" 
d="M14 16c-20 19 -26 50 -16 80c21 64 75 90 105 99c10 4 22 2 30 -5c9 -7 14 -18 12 -29c-4 -51 -15 -86 -27 -110c9 3 26 21 77 71c6 5 11 8 17 8c4 0 8 -1 11 -4c9 -7 6 -20 -1 -29c-48 -59 -77 -86 -104 -88c-9 0 -18 1 -26 7c-8 -6 -15 -10 -21 -12
c-6 -3 -13 -4 -19 -4c-14 0 -27 5 -38 16zM136 407c-10 0 -18 9 -18 19c0 37 31 104 35 111c4 10 15 14 25 9c9 -4 13 -15 9 -25c-12 -25 -31 -74 -31 -95c-1 -10 -9 -19 -20 -19zM38 83c-6 -17 -2 -31 5 -37c6 -6 12 -4 14 -3c16 5 37 37 46 108c-23 -10 -53 -30 -65 -68z
" />
    <glyph glyph-name="acircumflex" unicode="&#xe2;" horiz-adv-x="165" 
d="M14 16c-20 19 -26 50 -16 80c21 64 75 90 105 99c10 4 22 2 30 -5c9 -7 14 -18 12 -29c-4 -51 -15 -86 -27 -110c9 3 26 21 77 71c6 5 11 8 17 8c4 0 8 -1 11 -4c9 -7 6 -20 -1 -29c-48 -59 -77 -86 -104 -88c-9 0 -18 1 -26 7c-8 -6 -15 -10 -21 -12
c-6 -3 -13 -4 -19 -4c-14 0 -27 5 -38 16zM115 455c-7 5 -9 15 -5 22l39 63c3 4 8 7 13 8h1c5 0 9 -3 12 -7l46 -60c5 -7 4 -17 -3 -23c-7 -5 -17 -4 -23 3l-31 42l-27 -43c-4 -7 -14 -9 -22 -5zM38 83c-6 -17 -2 -31 5 -37c6 -6 12 -4 14 -3c16 5 37 37 46 108
c-23 -10 -53 -30 -65 -68z" />
    <glyph glyph-name="atilde" unicode="&#xe3;" horiz-adv-x="165" 
d="M14 16c-20 19 -26 50 -16 80c21 64 75 90 105 99c10 4 22 2 30 -5c9 -7 14 -18 12 -29c-4 -51 -15 -86 -27 -110c9 3 26 21 77 71c6 5 11 8 17 8c4 0 8 -1 11 -4c9 -7 6 -20 -1 -29c-48 -59 -77 -86 -104 -88c-9 0 -18 1 -26 7c-8 -6 -15 -10 -21 -12
c-6 -3 -13 -4 -19 -4c-14 0 -27 5 -38 16zM85 497c-5 7 -5 18 0 25c9 12 25 25 46 25c14 0 30 -6 46 -24c9 -10 18 -14 27 -14c22 0 39 27 40 28c4 7 12 8 17 1c6 -6 6 -18 1 -25c-11 -17 -33 -39 -59 -39c-13 0 -28 6 -42 22c-11 12 -21 16 -30 16c-16 0 -27 -14 -28 -15
c-5 -7 -13 -7 -18 0zM38 83c-6 -17 -2 -31 5 -37c6 -6 12 -4 14 -3c16 5 37 37 46 108c-23 -10 -53 -30 -65 -68z" />
    <glyph glyph-name="adieresis" unicode="&#xe4;" horiz-adv-x="165" 
d="M14 16c-20 19 -26 50 -16 80c21 64 75 90 105 99c10 4 22 2 30 -5c9 -7 14 -18 12 -29c-4 -51 -15 -86 -27 -110c9 3 26 21 77 71c6 5 11 8 17 8c4 0 8 -1 11 -4c9 -7 6 -20 -1 -29c-48 -59 -77 -86 -104 -88c-9 0 -18 1 -26 7c-8 -6 -15 -10 -21 -12
c-6 -3 -13 -4 -19 -4c-14 0 -27 5 -38 16zM38 83c-6 -17 -2 -31 5 -37c6 -6 12 -4 14 -3c16 5 37 37 46 108c-23 -10 -53 -30 -65 -68zM198 514c0 19 15 34 34 34c18 0 34 -15 34 -34s-16 -34 -34 -34c-19 0 -34 15 -34 34zM117 480c-19 0 -34 15 -34 34s15 34 34 34
s34 -15 34 -34s-15 -34 -34 -34z" />
    <glyph glyph-name="aring" unicode="&#xe5;" horiz-adv-x="165" 
d="M14 16c-20 19 -26 50 -16 80c21 64 75 90 105 99c10 4 22 2 30 -5c9 -7 14 -18 12 -29c-4 -51 -15 -86 -27 -110c9 3 26 21 77 71c6 5 11 8 17 8c4 0 8 -1 11 -4c9 -7 6 -20 -1 -29c-48 -59 -77 -86 -104 -88c-9 0 -18 1 -26 7c-8 -6 -15 -10 -21 -12
c-6 -3 -13 -4 -19 -4c-14 0 -27 5 -38 16zM99 473c-6 31 30 64 42 74c6 4 13 2 17 -5c1 -1 1 -3 2 -5c7 6 14 8 21 8s14 -2 20 -8c16 -12 24 -37 19 -58c-9 -32 -36 -38 -66 -38c-21 2 -49 6 -55 32zM38 83c-6 -17 -2 -31 5 -37c6 -6 12 -4 14 -3c16 5 37 37 46 108
c-23 -10 -53 -30 -65 -68zM148 516c-14 -14 -25 -29 -25 -35c0 0 5 -7 32 -9c27 -1 39 8 41 17c2 7 -2 17 -8 22s-13 4 -19 -4c-5 -6 -13 -5 -17 1c-2 2 -3 5 -4 8z" />
    <glyph glyph-name="egrave" unicode="&#xe8;" horiz-adv-x="145" 
d="M3 31c-20 41 -4 115 16 140c11 15 23 15 30 13c11 -2 19 -10 23 -20c9 -26 -21 -67 -39 -90c0 -9 2 -17 4 -24c4 -10 9 -10 12 -10c1 0 2 0 3 -1c14 2 46 15 91 70c4 5 9 8 15 8c4 0 9 -2 12 -5c9 -7 10 -19 3 -27c-56 -70 -99 -83 -119 -85c-25 0 -40 8 -51 31zM88 521
c-4 10 0 21 9 25c10 5 21 1 25 -9c4 -7 35 -74 35 -111c0 -10 -8 -19 -19 -19c-10 0 -18 9 -19 19c0 21 -19 70 -31 95z" />
    <glyph glyph-name="eacute" unicode="&#xe9;" horiz-adv-x="145" 
d="M3 31c-20 41 -4 115 16 140c11 15 23 15 30 13c11 -2 19 -10 23 -20c9 -26 -21 -67 -39 -90c0 -9 2 -17 4 -24c4 -10 9 -10 12 -10c1 0 2 0 3 -1c14 2 46 15 91 70c4 5 9 8 15 8c4 0 9 -2 12 -5c9 -7 10 -19 3 -27c-56 -70 -99 -83 -119 -85c-25 0 -40 8 -51 31zM126 407
c-10 0 -18 9 -18 19c0 37 31 104 35 111c4 10 15 14 25 9c9 -4 13 -15 9 -25c-12 -25 -31 -74 -31 -95c-1 -10 -9 -19 -20 -19z" />
    <glyph glyph-name="ecircumflex" unicode="&#xea;" horiz-adv-x="145" 
d="M3 31c-20 41 -4 115 16 140c11 15 23 15 30 13c11 -2 19 -10 23 -20c9 -26 -21 -67 -39 -90c0 -9 2 -17 4 -24c4 -10 9 -10 12 -10c1 0 2 0 3 -1c14 2 46 15 91 70c4 5 9 8 15 8c4 0 9 -2 12 -5c9 -7 10 -19 3 -27c-56 -70 -99 -83 -119 -85c-25 0 -40 8 -51 31zM105 455
c-7 5 -9 15 -5 22l39 63c3 4 8 7 13 8h1c5 0 9 -3 12 -7l46 -60c5 -7 4 -17 -3 -23c-7 -5 -17 -4 -23 3l-31 42l-27 -43c-4 -7 -14 -9 -22 -5z" />
    <glyph glyph-name="edieresis" unicode="&#xeb;" horiz-adv-x="145" 
d="M3 31c-20 41 -4 115 16 140c11 15 23 15 30 13c11 -2 19 -10 23 -20c9 -26 -21 -67 -39 -90c0 -9 2 -17 4 -24c4 -10 9 -10 12 -10c1 0 2 0 3 -1c14 2 46 15 91 70c4 5 9 8 15 8c4 0 9 -2 12 -5c9 -7 10 -19 3 -27c-56 -70 -99 -83 -119 -85c-25 0 -40 8 -51 31zM222 480
c-19 0 -34 15 -34 34s15 34 34 34c18 0 34 -15 34 -34s-16 -34 -34 -34zM73 514c0 19 15 34 34 34s34 -15 34 -34s-15 -34 -34 -34s-34 15 -34 34z" />
    <glyph glyph-name="igrave" unicode="&#xec;" horiz-adv-x="128" 
d="M1 26c-29 43 6 129 14 145c4 11 17 16 27 11c11 -5 15 -17 11 -27c-14 -32 -30 -88 -18 -106c1 -2 4 -6 15 -6c11 5 48 17 96 76c4 5 10 7 16 7c5 0 9 -1 13 -4c9 -8 10 -21 3 -30c-53 -64 -101 -89 -130 -92c-12 0 -22 2 -31 10c-8 5 -13 10 -16 16zM80 521
c-5 10 -1 21 9 25c9 5 20 1 25 -9c3 -7 34 -74 35 -111c0 -10 -8 -19 -19 -19c-10 0 -19 9 -19 19c0 21 -19 70 -31 95zM34 249c0 13 11 24 24 24s23 -11 23 -24s-10 -23 -23 -23s-24 10 -24 23z" />
    <glyph glyph-name="iacute" unicode="&#xed;" horiz-adv-x="128" 
d="M1 26c-29 43 6 129 14 145c4 11 17 16 27 11c11 -5 15 -17 11 -27c-14 -32 -30 -88 -18 -106c1 -2 4 -6 15 -6c11 5 48 17 96 76c4 5 10 7 16 7c5 0 9 -1 13 -4c9 -8 10 -21 3 -30c-53 -64 -101 -89 -130 -92c-12 0 -22 2 -31 10c-8 5 -13 10 -16 16zM118 407
c-11 0 -19 9 -19 19c1 37 32 104 35 111c5 10 16 14 25 9c10 -4 14 -15 10 -25c-12 -25 -32 -74 -32 -95c0 -10 -8 -19 -19 -19zM58 226c-13 0 -24 10 -24 23s11 24 24 24s23 -11 23 -24s-10 -23 -23 -23z" />
    <glyph glyph-name="icircumflex" unicode="&#xee;" horiz-adv-x="128" 
d="M1 26c-29 43 6 129 14 145c4 11 17 16 27 11c11 -5 15 -17 11 -27c-14 -32 -30 -88 -18 -106c1 -2 4 -6 15 -6c11 5 48 17 96 76c4 5 10 7 16 7c5 0 9 -1 13 -4c9 -8 10 -21 3 -30c-53 -64 -101 -89 -130 -92c-12 0 -22 2 -31 10c-8 5 -13 10 -16 16zM97 455
c-8 5 -10 15 -5 22l39 63c2 4 7 7 12 8h1c5 0 10 -3 13 -7l45 -60c6 -7 4 -17 -3 -23c-7 -5 -17 -4 -22 3l-32 42l-26 -43c-5 -7 -15 -9 -22 -5zM34 249c0 13 11 24 24 24s23 -11 23 -24s-10 -23 -23 -23s-24 10 -24 23z" />
    <glyph glyph-name="idieresis" unicode="&#xef;" horiz-adv-x="128" 
d="M1 26c-29 43 6 129 14 145c4 11 17 16 27 11c11 -5 15 -17 11 -27c-14 -32 -30 -88 -18 -106c1 -2 4 -6 15 -6c11 5 48 17 96 76c4 5 10 7 16 7c5 0 9 -1 13 -4c9 -8 10 -21 3 -30c-53 -64 -101 -89 -130 -92c-12 0 -22 2 -31 10c-8 5 -13 10 -16 16zM213 480
c-19 0 -34 15 -34 34s15 34 34 34s34 -15 34 -34s-15 -34 -34 -34zM99 480c-19 0 -34 15 -34 34s15 34 34 34s34 -15 34 -34s-15 -34 -34 -34zM34 249c0 13 11 24 24 24s23 -11 23 -24s-10 -23 -23 -23s-24 10 -24 23z" />
    <glyph glyph-name="ntilde" unicode="&#xf1;" horiz-adv-x="235" 
d="M-21 5c-9 4 -14 14 -12 24l42 154c3 11 14 18 25 16c11 -3 18 -14 15 -25l-11 -48c20 17 43 31 65 31c13 0 25 -6 33 -16c11 -16 13 -41 11 -66c39 31 57 60 68 73c10 5 23 1 28 -9s1 -23 -9 -28c-51 -50 -78 -87 -97 -100c-3 -6 -9 -9 -14 -9c-3 -1 -5 -2 -8 -2
c-2 0 -4 0 -6 1c-10 3 -17 14 -14 25c11 39 15 83 8 90c-24 0 -78 -72 -99 -103c-5 -9 -16 -12 -25 -8zM120 497c-5 7 -5 18 0 25c9 12 25 25 46 25c14 0 30 -6 46 -24c9 -10 18 -14 27 -14c22 0 39 27 40 28c4 7 12 8 17 1c6 -6 6 -18 1 -25c-11 -17 -33 -39 -59 -39
c-13 0 -28 6 -42 22c-11 12 -21 16 -30 16c-16 0 -27 -14 -28 -15c-5 -7 -13 -7 -18 0z" />
    <glyph glyph-name="ograve" unicode="&#xf2;" horiz-adv-x="211" 
d="M-24 74c0 33 18 64 46 80c12 7 26 10 40 8c20 -4 34 -14 44 -30c12 -20 14 -41 9 -62c-1 -5 -2 -10 -4 -15c7 6 13 11 18 16c10 10 27 29 36 39c7 8 19 9 26 2c3 -3 4 -7 5 -11v-4c-1 -3 -2 -6 -4 -8c-13 -17 -36 -41 -53 -55c-7 -7 -15 -12 -24 -16
c-10 -4 -19 -5 -29 -1c-1 0 -2 0 -2 -1c-6 -4 -11 -8 -17 -11c-9 -4 -18 -6 -27 -6c-36 0 -60 30 -64 63v9v3zM121 521c-4 10 0 21 9 25c10 5 21 1 25 -9c4 -7 35 -74 35 -111c0 -10 -8 -19 -19 -19c-10 0 -18 9 -19 19c0 21 -19 70 -31 95zM28 116c-14 -14 -19 -31 -17 -51
c1 -9 4 -18 11 -24c5 -5 12 -8 19 -7c0 1 0 1 -1 1c-5 11 -7 23 -5 35c1 13 5 25 11 37c3 7 7 14 11 21h-5c-9 -1 -17 -5 -24 -12zM69 67c-1 -5 -1 -10 2 -15c10 12 16 39 10 49c-6 -11 -11 -22 -12 -34z" />
    <glyph glyph-name="oacute" unicode="&#xf3;" horiz-adv-x="211" 
d="M-24 74c0 33 18 64 46 80c12 7 26 10 40 8c20 -4 34 -14 44 -30c12 -20 14 -41 9 -62c-1 -5 -2 -10 -4 -15c7 6 13 11 18 16c10 10 27 29 36 39c7 8 19 9 26 2c3 -3 4 -7 5 -11v-4c-1 -3 -2 -6 -4 -8c-13 -17 -36 -41 -53 -55c-7 -7 -15 -12 -24 -16
c-10 -4 -19 -5 -29 -1c-1 0 -2 0 -2 -1c-6 -4 -11 -8 -17 -11c-9 -4 -18 -6 -27 -6c-36 0 -60 30 -64 63v9v3zM159 407c-10 0 -18 9 -18 19c0 37 31 104 35 111c4 10 15 14 25 9c9 -4 13 -15 9 -25c-12 -25 -31 -74 -31 -95c-1 -10 -9 -19 -20 -19zM28 116
c-14 -14 -19 -31 -17 -51c1 -9 4 -18 11 -24c5 -5 12 -8 19 -7c0 1 0 1 -1 1c-5 11 -7 23 -5 35c1 13 5 25 11 37c3 7 7 14 11 21h-5c-9 -1 -17 -5 -24 -12zM69 67c-1 -5 -1 -10 2 -15c10 12 16 39 10 49c-6 -11 -11 -22 -12 -34z" />
    <glyph glyph-name="ocircumflex" unicode="&#xf4;" horiz-adv-x="211" 
d="M-24 74c0 33 18 64 46 80c12 7 26 10 40 8c20 -4 34 -14 44 -30c12 -20 14 -41 9 -62c-1 -5 -2 -10 -4 -15c7 6 13 11 18 16c10 10 27 29 36 39c7 8 19 9 26 2c3 -3 4 -7 5 -11v-4c-1 -3 -2 -6 -4 -8c-13 -17 -36 -41 -53 -55c-7 -7 -15 -12 -24 -16
c-10 -4 -19 -5 -29 -1c-1 0 -2 0 -2 -1c-6 -4 -11 -8 -17 -11c-9 -4 -18 -6 -27 -6c-36 0 -60 30 -64 63v9v3zM138 455c-7 5 -9 15 -5 22l39 63c3 4 8 7 13 8h1c5 0 9 -3 12 -7l46 -60c5 -7 4 -17 -3 -23c-7 -5 -17 -4 -23 3l-31 42l-27 -43c-4 -7 -14 -9 -22 -5zM28 116
c-14 -14 -19 -31 -17 -51c1 -9 4 -18 11 -24c5 -5 12 -8 19 -7c0 1 0 1 -1 1c-5 11 -7 23 -5 35c1 13 5 25 11 37c3 7 7 14 11 21h-5c-9 -1 -17 -5 -24 -12zM69 67c-1 -5 -1 -10 2 -15c10 12 16 39 10 49c-6 -11 -11 -22 -12 -34z" />
    <glyph glyph-name="otilde" unicode="&#xf5;" horiz-adv-x="211" 
d="M-24 74c0 33 18 64 46 80c12 7 26 10 40 8c20 -4 34 -14 44 -30c12 -20 14 -41 9 -62c-1 -5 -2 -10 -4 -15c7 6 13 11 18 16c10 10 27 29 36 39c7 8 19 9 26 2c3 -3 4 -7 5 -11v-4c-1 -3 -2 -6 -4 -8c-13 -17 -36 -41 -53 -55c-7 -7 -15 -12 -24 -16
c-10 -4 -19 -5 -29 -1c-1 0 -2 0 -2 -1c-6 -4 -11 -8 -17 -11c-9 -4 -18 -6 -27 -6c-36 0 -60 30 -64 63v9v3zM108 497c-5 7 -5 18 0 25c9 12 25 25 46 25c14 0 30 -6 46 -24c9 -10 18 -14 27 -14c22 0 39 27 40 28c4 7 12 8 17 1c6 -6 6 -18 1 -25c-11 -17 -33 -39 -59 -39
c-13 0 -28 6 -42 22c-11 12 -21 16 -30 16c-16 0 -27 -14 -28 -15c-5 -7 -13 -7 -18 0zM28 116c-14 -14 -19 -31 -17 -51c1 -9 4 -18 11 -24c5 -5 12 -8 19 -7c0 1 0 1 -1 1c-5 11 -7 23 -5 35c1 13 5 25 11 37c3 7 7 14 11 21h-5c-9 -1 -17 -5 -24 -12zM69 67
c-1 -5 -1 -10 2 -15c10 12 16 39 10 49c-6 -11 -11 -22 -12 -34z" />
    <glyph glyph-name="odieresis" unicode="&#xf6;" horiz-adv-x="211" 
d="M-24 74c0 33 18 64 46 80c12 7 26 10 40 8c20 -4 34 -14 44 -30c12 -20 14 -41 9 -62c-1 -5 -2 -10 -4 -15c7 6 13 11 18 16c10 10 27 29 36 39c7 8 19 9 26 2c3 -3 4 -7 5 -11v-4c-1 -3 -2 -6 -4 -8c-13 -17 -36 -41 -53 -55c-7 -7 -15 -12 -24 -16
c-10 -4 -19 -5 -29 -1c-1 0 -2 0 -2 -1c-6 -4 -11 -8 -17 -11c-9 -4 -18 -6 -27 -6c-36 0 -60 30 -64 63v9v3zM221 514c0 19 15 34 34 34c18 0 34 -15 34 -34s-16 -34 -34 -34c-19 0 -34 15 -34 34zM140 480c-19 0 -34 15 -34 34s15 34 34 34s34 -15 34 -34s-15 -34 -34 -34
zM28 116c-14 -14 -19 -31 -17 -51c1 -9 4 -18 11 -24c5 -5 12 -8 19 -7c0 1 0 1 -1 1c-5 11 -7 23 -5 35c1 13 5 25 11 37c3 7 7 14 11 21h-5c-9 -1 -17 -5 -24 -12zM69 67c-1 -5 -1 -10 2 -15c10 12 16 39 10 49c-6 -11 -11 -22 -12 -34z" />
    <glyph glyph-name="scaron" unicode="&#x161;" horiz-adv-x="128" 
d="M-14 17c-1 10 7 18 17 19c5 0 21 3 27 12c4 7 1 20 -7 35c-26 51 -11 92 16 110c8 6 17 8 26 8s17 -3 23 -10c5 -6 7 -14 6 -22c-4 -19 -30 -36 -48 -45c1 -8 4 -16 9 -24c9 -18 13 -34 12 -48c10 2 29 13 55 45c6 8 17 9 25 3s9 -18 3 -25c-30 -36 -60 -57 -85 -59
c-1 -1 -3 -1 -4 -1c-4 0 -8 1 -11 2c-18 -15 -43 -17 -46 -17h-1c-9 0 -17 7 -17 17zM64 513c-7 9 -5 21 4 27c3 3 7 4 11 4c6 0 12 -3 16 -8l38 -50l32 52c6 9 17 12 26 6c10 -6 12 -18 7 -27l-47 -76c-4 -5 -10 -8 -16 -9h-1c-6 0 -12 3 -15 8z" />
    <glyph glyph-name="ugrave" unicode="&#xf9;" horiz-adv-x="250" 
d="M-10 22c-26 42 -4 130 3 147c4 9 14 14 22 10c9 -4 13 -15 10 -24c-8 -20 -31 -118 6 -118c56 -4 76 128 76 129c2 10 11 16 20 14s15 -12 13 -22c0 -3 -4 -68 -22 -107c5 -7 12 -10 18 -10c19 0 42 29 59 88c6 8 17 9 24 2c7 -6 9 -18 3 -26c-7 -9 -34 -103 -83 -103
c-12 0 -25 6 -40 20c-15 -17 -43 -22 -68 -22c-23 0 -35 12 -41 22zM141 521c-5 10 -1 21 9 25c9 5 20 1 25 -9c3 -7 34 -74 35 -111c0 -10 -8 -19 -19 -19c-10 0 -19 9 -19 19c0 21 -19 70 -31 95z" />
    <glyph glyph-name="uacute" unicode="&#xfa;" horiz-adv-x="250" 
d="M-10 22c-26 42 -4 130 3 147c4 9 14 14 22 10c9 -4 13 -15 10 -24c-8 -20 -31 -118 6 -118c56 -4 76 128 76 129c2 10 11 16 20 14s15 -12 13 -22c0 -3 -4 -68 -22 -107c5 -7 12 -10 18 -10c19 0 42 29 59 88c6 8 17 9 24 2c7 -6 9 -18 3 -26c-7 -9 -34 -103 -83 -103
c-12 0 -25 6 -40 20c-15 -17 -43 -22 -68 -22c-23 0 -35 12 -41 22zM179 407c-11 0 -19 9 -19 19c1 37 32 104 35 111c5 10 16 14 25 9c10 -4 14 -15 10 -25c-12 -25 -32 -74 -32 -95c0 -10 -8 -19 -19 -19z" />
    <glyph glyph-name="ucircumflex" unicode="&#xfb;" horiz-adv-x="250" 
d="M-10 22c-26 42 -4 130 3 147c4 9 14 14 22 10c9 -4 13 -15 10 -24c-8 -20 -31 -118 6 -118c56 -4 76 128 76 129c2 10 11 16 20 14s15 -12 13 -22c0 -3 -4 -68 -22 -107c5 -7 12 -10 18 -10c19 0 42 29 59 88c6 8 17 9 24 2c7 -6 9 -18 3 -26c-7 -9 -34 -103 -83 -103
c-12 0 -25 6 -40 20c-15 -17 -43 -22 -68 -22c-23 0 -35 12 -41 22zM158 455c-8 5 -10 15 -5 22l39 63c2 4 7 7 12 8h1c5 0 10 -3 13 -7l45 -60c6 -7 4 -17 -3 -23c-7 -5 -17 -4 -22 3l-32 42l-26 -43c-5 -7 -15 -9 -22 -5z" />
    <glyph glyph-name="udieresis" unicode="&#xfc;" horiz-adv-x="250" 
d="M-10 22c-26 42 -4 130 3 147c4 9 14 14 22 10c9 -4 13 -15 10 -24c-8 -20 -31 -118 6 -118c56 -4 76 128 76 129c2 10 11 16 20 14s15 -12 13 -22c0 -3 -4 -68 -22 -107c5 -7 12 -10 18 -10c19 0 42 29 59 88c6 8 17 9 24 2c7 -6 9 -18 3 -26c-7 -9 -34 -103 -83 -103
c-12 0 -25 6 -40 20c-15 -17 -43 -22 -68 -22c-23 0 -35 12 -41 22zM274 480c-19 0 -34 15 -34 34s15 34 34 34s34 -15 34 -34s-15 -34 -34 -34zM160 480c-19 0 -34 15 -34 34s15 34 34 34s34 -15 34 -34s-15 -34 -34 -34z" />
    <glyph glyph-name="yacute" unicode="&#xfd;" horiz-adv-x="254" 
d="M100 -220c-14 19 -11 49 9 88c27 56 78 120 126 174l1 11c-19 -33 -40 -49 -63 -47c-12 0 -23 6 -30 16c-13 18 -15 50 -9 96c5 32 13 60 13 61c3 9 12 15 21 12c10 -3 15 -12 12 -21c-11 -41 -22 -109 -9 -128c2 -2 3 -2 4 -2c22 -2 54 67 68 130c2 8 11 14 19 13
c9 -1 16 -9 15 -18c0 -3 -1 -36 -4 -81c40 42 71 71 74 74c7 6 17 6 24 -1c6 -7 6 -18 -1 -24c-1 -1 -48 -46 -101 -105c-6 -56 -14 -116 -27 -158c-18 -61 -63 -98 -98 -105c-17 0 -32 0 -44 15zM140 -147c-16 -32 -15 -48 -12 -52c2 -3 8 -2 10 -2c21 4 56 31 71 80
c9 28 15 65 20 103c-36 -43 -70 -89 -89 -129zM181 407c-11 0 -19 9 -19 19c1 37 32 104 35 111c5 10 16 14 25 9c10 -4 14 -15 10 -25c-12 -25 -32 -74 -32 -95c0 -10 -8 -19 -19 -19z" />
    <glyph glyph-name="ydieresis" unicode="&#xff;" horiz-adv-x="254" 
d="M100 -220c-14 19 -11 49 9 88c27 56 78 120 126 174l1 11c-19 -33 -40 -49 -63 -47c-12 0 -23 6 -30 16c-13 18 -15 50 -9 96c5 32 13 60 13 61c3 9 12 15 21 12c10 -3 15 -12 12 -21c-11 -41 -22 -109 -9 -128c2 -2 3 -2 4 -2c22 -2 54 67 68 130c2 8 11 14 19 13
c9 -1 16 -9 15 -18c0 -3 -1 -36 -4 -81c40 42 71 71 74 74c7 6 17 6 24 -1c6 -7 6 -18 -1 -24c-1 -1 -48 -46 -101 -105c-6 -56 -14 -116 -27 -158c-18 -61 -63 -98 -98 -105c-17 0 -32 0 -44 15zM140 -147c-16 -32 -15 -48 -12 -52c2 -3 8 -2 10 -2c21 4 56 31 71 80
c9 28 15 65 20 103c-36 -43 -70 -89 -89 -129zM242 514c0 19 15 34 34 34s34 -15 34 -34s-15 -34 -34 -34s-34 15 -34 34zM162 480c-19 0 -34 15 -34 34s15 34 34 34s34 -15 34 -34s-15 -34 -34 -34z" />
    <glyph glyph-name="zcaron" unicode="&#x17e;" horiz-adv-x="190" 
d="M1 98c-6 9 -4 21 5 27c31 21 80 51 114 51c16 0 31 -7 33 -24c3 -19 -10 -37 -35 -68c-9 -13 -26 -34 -31 -45c19 0 70 23 114 51c3 2 7 3 10 3c7 0 13 -3 17 -9c6 -10 3 -22 -6 -27c-45 -28 -100 -57 -136 -57c-13 0 -23 3 -31 11c-23 26 5 62 33 97c6 8 15 19 20 28
c-18 -6 -51 -23 -79 -43c-3 -2 -7 -3 -11 -3c-6 0 -13 2 -17 8zM95 513c-7 9 -5 21 4 27c3 3 7 4 11 4c6 0 12 -3 16 -8l38 -50l32 52c6 9 17 12 26 6c10 -6 12 -18 7 -27l-47 -76c-4 -5 -10 -8 -16 -9h-1c-6 0 -12 3 -15 8z" />
    <glyph glyph-name="oslash" unicode="&#xf8;" horiz-adv-x="541" 
d="M13 50c-11 14 -10 34 4 45c32 27 68 57 105 88c-17 47 -16 106 6 165c34 93 107 152 179 152c23 0 57 -4 65 -29c19 -9 33 -24 44 -39l71 60c6 5 13 8 20 8c10 0 19 -4 25 -12c11 -13 10 -33 -4 -45l-85 -72c8 -44 3 -90 -13 -134c-27 -73 -96 -152 -180 -152
c-16 0 -30 3 -45 8c-19 8 -36 19 -50 34c-34 -29 -67 -56 -97 -81c-6 -5 -13 -8 -20 -8c-10 0 -19 4 -25 12zM188 326c-13 -33 -16 -67 -11 -96c66 56 133 113 190 160c-6 10 -15 20 -25 23c-19 7 -44 -7 -61 -20c-6 -4 -12 -6 -19 -6c-10 0 -20 5 -26 13
c-20 -18 -37 -44 -48 -74zM204 169c7 -7 15 -12 23 -16c7 -2 14 -4 22 -4c17 0 35 7 53 19c48 33 77 93 80 151c-55 -46 -117 -99 -178 -150z" />
    <glyph glyph-name="j" unicode="j" horiz-adv-x="145" 
d="M-94 -171c1 4 2 8 2 11c5 18 14 34 24 49c28 41 64 75 100 108c1 1 2 2 2 3c2 18 4 36 5 55c2 18 3 37 4 55c0 5 0 11 1 17l2 49c1 8 8 17 16 18h6h1c9 -2 17 -10 16 -22c0 -18 0 -36 -1 -54c-1 -26 -3 -42 -4 -68c-1 -3 -1 -6 -1 -9c27 20 53 36 80 52c11 8 22 12 30 12
c20 0 24 -22 -20 -54c-25 -18 -53 -32 -77 -51c-6 -5 -12 -11 -18 -16c-1 -1 -2 -3 -2 -4c-8 -57 -25 -165 -77 -197c-8 -4 -16 -6 -26 -7h-3c-30 0 -50 14 -60 43v10zM-54 -175c0 -2 1 -3 3 -4c7 -3 13 -4 20 -4c6 1 10 4 14 8c8 9 14 19 19 30c8 19 13 40 18 60
c1 6 2 12 4 18h-1c-2 -3 -5 -5 -8 -8c-17 -17 -33 -36 -47 -56c-8 -10 -15 -20 -19 -32c-2 -4 -2 -8 -3 -12zM40 259c0 14 11 24 24 24s24 -10 24 -24c0 -13 -11 -24 -24 -24s-24 11 -24 24z" />
    <glyph glyph-name="t" unicode="t" horiz-adv-x="161" 
d="M-31 245c-1 10 7 19 17 19c0 0 25 2 56 6c14 55 28 104 36 131c3 10 13 15 23 13c9 -3 15 -13 12 -23c-11 -37 -22 -76 -31 -114c21 4 42 10 60 17c9 4 20 0 24 -10c4 -9 -1 -20 -10 -24c-25 -10 -56 -17 -84 -22c-24 -98 -40 -182 -33 -199c1 -2 2 -3 2 -3
c17 -2 88 13 141 93c6 9 17 11 25 5c9 -5 11 -16 5 -25c-32 -48 -116 -109 -175 -109c-8 1 -23 5 -31 25c-12 28 6 119 27 207c-25 -3 -43 -4 -45 -4h-1c-10 0 -18 7 -18 17z" />
    <glyph glyph-name="w" unicode="w" horiz-adv-x="346" 
d="M11 26c-32 46 6 144 14 163c5 11 17 16 27 11c11 -4 16 -16 12 -27c-16 -38 -33 -103 -19 -124c2 -2 4 -6 15 -6c41 0 64 42 75 72c3 15 7 27 9 32c1 1 1 1 1 2c1 1 1 1 1 2c2 2 2 3 3 3l3 3c2 1 3 1 3 2h2c1 1 1 1 2 1h2h2h2h2h1c2 0 2 -1 3 -1s2 -1 2 -1c1 0 2 0 2 -1
c1 0 1 -1 2 -1l3 -3l1 -1c0 -1 1 -2 1 -2c0 -1 1 -1 1 -2c0 0 0 -1 1 -2v-2v-2c1 0 1 -1 1 -2v-2c0 0 0 -1 -1 -2c0 -2 -3 -16 -9 -34c-7 -30 -8 -55 -3 -59c16 -3 28 0 39 9c28 25 35 88 35 111c0 11 9 21 21 21c11 0 21 -10 21 -21c0 -8 -1 -62 -23 -106c18 9 52 22 83 60
c4 5 10 8 16 8c4 0 9 -2 13 -5c9 -7 11 -21 3 -30c-60 -74 -114 -81 -136 -83c-8 0 -16 0 -23 3c-12 -7 -25 -10 -40 -10c-19 0 -35 4 -45 22c-2 3 -3 6 -4 9c-18 -17 -42 -30 -72 -30c-27 0 -42 14 -49 25z" />
    <glyph glyph-name="m" unicode="m" horiz-adv-x="324" 
d="M-3 47c0 9 1 91 45 129c18 16 40 22 65 18c12 -1 22 -8 29 -18c1 -3 3 -6 4 -9c16 16 37 27 65 27c25 0 38 -12 45 -22c23 -35 5 -100 -7 -132c16 4 44 19 83 67c6 8 18 9 26 2c9 -6 10 -18 3 -26c-55 -68 -96 -81 -116 -83c-12 0 -24 1 -33 10c-6 5 -8 13 -6 20
c0 2 0 5 1 7c15 35 30 95 17 114c-1 2 -3 5 -13 5c-37 0 -58 -38 -68 -65c-4 -14 -7 -25 -9 -29c-1 -3 -2 -4 -2 -4c-1 -2 -2 -3 -2 -3l-1 -1l-2 -2h-1c-1 -1 -1 -1 -3 -2c-1 0 -2 0 -3 -1h-4h-3c-4 2 -5 2 -6 2c-2 1 -2 2 -3 2c-2 2 -2 2 -2 3c-2 2 -2 2 -2 3
c-2 2 -2 3 -2 3v2c-1 0 -1 1 -1 2v3v2v1c1 1 3 14 9 30c7 27 7 50 3 55c-15 2 -26 -1 -36 -9c-26 -23 -32 -81 -32 -101c0 -10 -8 -19 -19 -19c-10 0 -19 9 -19 19z" />
    <glyph glyph-name="d" unicode="d" horiz-adv-x="205" 
d="M-22 71c2 7 3 12 4 17c15 42 76 69 115 80c1 1 2 1 2 3c1 12 1 24 2 36c1 18 2 37 4 55c2 21 5 42 7 62c4 30 17 105 46 120l9 3h8c3 -1 5 -1 7 -2c11 -4 16 -13 20 -23c3 -10 4 -21 4 -31c0 -100 -54 -255 -93 -344c1 0 1 1 2 1c39 15 70 41 98 72c3 5 8 7 14 7
c5 0 11 -3 15 -8c1 -2 2 -5 3 -7v-7c-1 -3 -2 -6 -4 -8c-30 -40 -83 -76 -130 -89c-11 -2 -22 -4 -33 -1h-2c-5 -2 -10 -4 -14 -5c-3 -1 -6 -1 -9 -2h-13l-8 1c-26 5 -46 25 -52 51c-1 3 -1 6 -2 9v10zM19 80c-6 -11 -4 -25 3 -33c6 -6 15 -10 25 -10c11 0 22 5 28 17
s11 26 17 38c3 7 6 14 5 21v17c-3 -2 -7 -3 -10 -4c-17 -7 -34 -14 -49 -25c-7 -6 -14 -12 -19 -21zM140 234c1 1 1 2 1 2c4 16 8 31 12 47c7 34 15 69 16 104c1 5 0 11 0 16h-1c0 -1 -1 -2 -1 -3c-2 -5 -4 -10 -5 -14c-8 -29 -12 -58 -16 -87c-2 -17 -3 -33 -5 -50
c0 -5 -1 -10 -1 -15z" />
    <glyph glyph-name="uni000A" unicode="&#xa;" horiz-adv-x="333" 
 />
    <glyph glyph-name="aj" horiz-adv-x="333" 
d="M56 17c-19 19 -25 50 -16 80c22 64 75 90 105 99c11 4 22 2 31 -5c8 -7 13 -18 12 -29c-5 -51 -15 -86 -27 -110c8 3 30 16 75 72c4 4 9 7 14 7l3 50c0 7 8 16 15 18h7c10 -2 17 -11 17 -22c-1 -18 -1 -36 -1 -54c-2 -26 -4 -42 -5 -69c0 -3 0 -5 -1 -8h2
c25 19 51 36 79 52c11 8 21 12 29 12c20 0 25 -21 -20 -54c-25 -18 -52 -32 -77 -52c-6 -5 -12 -10 -18 -16c-1 -1 -1 -2 -1 -3c-6 -38 -12 -75 -24 -111c-12 -37 -33 -93 -80 -93h-2h-3c-24 3 -57 13 -57 43v10c0 51 89 136 126 168c0 1 1 2 1 3l6 54v13
c-36 -41 -63 -60 -86 -62c-10 0 -18 1 -26 7c-7 -6 -14 -10 -20 -12c-7 -3 -13 -4 -20 -4c-13 0 -27 6 -38 16zM80 84c-6 -17 -1 -31 5 -37c7 -6 12 -4 14 -3c16 6 37 38 46 108c-23 -10 -52 -30 -65 -68zM153 -170c-1 -2 1 -4 2 -5c7 -3 14 -4 21 -3c6 0 10 4 14 8
c19 21 31 63 36 90c2 5 3 11 4 17l-1 1c-2 -3 -5 -5 -7 -8c-17 -18 -34 -36 -48 -56c-7 -10 -14 -21 -19 -32c-1 -4 -2 -8 -2 -12zM246 264c0 13 11 24 24 24c14 0 25 -11 25 -24s-11 -24 -25 -24c-13 0 -24 11 -24 24z" />
    <glyph glyph-name="backslash" unicode="\" horiz-adv-x="536" 
d="M130 522c-6 9 -3 21 6 27c3 2 7 3 11 3c6 0 13 -3 16 -10c2 -2 155 -255 223 -361c6 -9 4 -22 -5 -27c-4 -3 -7 -4 -11 -4c-6 0 -13 4 -16 9c-69 107 -223 360 -224 363z" />
    <glyph glyph-name="ogonek" unicode="&#x2db;" horiz-adv-x="485" 
d="M206 -198c-12 26 23 60 54 84c8 6 20 5 26 -3s4 -20 -4 -26c-17 -13 -34 -29 -40 -39c7 -1 24 0 58 7c10 2 19 -4 21 -14c1 -5 1 -9 -1 -13c-10 -13 -56 -16 -71 -16c-24 0 -37 7 -43 20z" />
    <glyph glyph-name="lslash" unicode="&#x142;" horiz-adv-x="381" 
d="M24 229c-10 13 -7 31 6 40c4 2 51 36 117 77c18 117 34 219 34 221c3 16 17 26 33 24s26 -17 24 -33c-1 -1 -12 -78 -27 -175c35 20 72 40 109 56c15 7 32 0 38 -14c7 -15 0 -31 -14 -38c-49 -22 -100 -50 -144 -77c-16 -104 -32 -215 -40 -276c-2 -18 -15 -25 -32 -25
c-16 2 -27 16 -25 32c7 52 19 140 33 230c-43 -28 -72 -48 -72 -49c-5 -3 -11 -5 -17 -5c-9 0 -18 4 -23 12z" />
    </font>
</defs>
</svg>
